<svg width="195" height="81" viewBox="0 0 195 81" fill="none" xmlns="http://www.w3.org/2000/svg">
<path id="Vector 6" d="M194.055 65.9248C194.748 65.0664 194.613 63.8058 193.753 63.1091L179.749 51.7556C178.89 51.0589 177.632 51.19 176.94 52.0484C176.247 52.9068 176.382 54.1674 177.242 54.8641L189.69 64.9561L179.66 77.39C178.967 78.2484 179.103 79.5091 179.962 80.2058C180.821 80.9025 182.079 80.7714 182.772 79.913L194.055 65.9248ZM0.0306744 2.30917C1.16083 5.26615 2.36551 8.11437 3.64676 10.8562L7.26521 9.16953C6.02687 6.51948 4.85966 3.76051 3.76229 0.889314L0.0306744 2.30917ZM12.8878 26.9416C16.5384 32.1366 20.5976 36.8092 25.0848 40.9889L27.8006 38.0615C23.5242 34.0782 19.648 29.6183 16.153 24.6448L12.8878 26.9416ZM39.967 52.1486C45.1331 55.2433 50.7012 57.9016 56.6837 60.1569L58.0796 56.4106C52.3023 54.2326 46.9528 51.6759 42.009 48.7144L39.967 52.1486ZM74.3721 65.4108C80.0998 66.7141 86.1353 67.7509 92.487 68.5414L92.9658 64.5684C86.7303 63.7924 80.8272 62.7772 75.244 61.5069L74.3721 65.4108ZM110.746 70.1093C116.606 70.4102 122.701 70.5485 129.036 70.536L129.014 66.5325C122.742 66.5449 116.718 66.4079 110.936 66.1111L110.746 70.1093ZM147.271 70.1214C153.152 69.8767 159.218 69.5264 165.474 69.078L165.175 65.0847C158.954 65.5306 152.928 65.8784 147.091 66.1214L147.271 70.1214ZM183.64 67.5576C186.625 67.2749 189.649 66.9736 192.713 66.6543L192.286 62.6723C189.233 62.9903 186.221 63.2904 183.25 63.5719L183.64 67.5576Z" fill="black"/>
</svg>
