<svg width="195" height="65" viewBox="0 0 195 65" fill="none" xmlns="http://www.w3.org/2000/svg">
<path id="Vector 5" d="M194.799 47.5737C195.282 46.5799 194.867 45.3834 193.873 44.9011L177.68 37.0421C176.686 36.5598 175.489 36.9744 175.007 37.9681C174.525 38.9619 174.939 40.1584 175.933 40.6407L190.327 47.6265L183.342 62.0209C182.859 63.0146 183.274 64.2111 184.268 64.6934C185.261 65.1757 186.458 64.7611 186.94 63.7673L194.799 47.5737ZM0.356538 3.13975C1.92264 5.39799 3.74242 7.76393 5.81004 10.1946L8.85686 7.60294C6.86781 5.2646 5.12917 3.00256 3.64346 0.86025L0.356538 3.13975ZM18.3339 22.819C22.5137 26.4799 27.2016 30.1335 32.3849 33.6493L34.6303 30.339C29.5847 26.9165 25.0269 23.3638 20.9694 19.81L18.3339 22.819ZM47.6082 42.73C52.6553 45.3601 58.0382 47.8139 63.7495 50.016L65.1886 46.2839C59.6208 44.1371 54.3745 41.7454 49.4568 39.1827L47.6082 42.73ZM80.6023 55.4651C86.1384 56.925 91.9207 58.1374 97.944 59.0516L98.5443 55.0969C92.6643 54.2044 87.0221 53.0213 81.6223 51.5973L80.6023 55.4651ZM115.56 60.7971C121.27 61.0697 127.162 61.0733 133.233 60.7733L133.036 56.7782C127.093 57.0718 121.331 57.0681 115.751 56.8016L115.56 60.7971ZM150.822 59.0946C156.476 58.2993 162.267 57.2422 168.191 55.9L167.307 51.9988C161.49 53.317 155.808 54.3539 150.265 55.1336L150.822 59.0946ZM185.253 51.3386C188.027 50.4852 190.828 49.5698 193.655 48.5902L192.345 44.8107C189.562 45.7751 186.806 46.6759 184.077 47.5154L185.253 51.3386Z" fill="black"/>
</svg>
