<svg width="195" height="66" viewBox="0 0 195 66" fill="none" xmlns="http://www.w3.org/2000/svg">
<path id="Vector 7" d="M194.804 17.6519C195.281 18.6482 194.86 19.8425 193.863 20.3194L177.627 28.0906C176.631 28.5675 175.437 28.1464 174.96 27.15C174.483 26.1537 174.904 24.9594 175.901 24.4826L190.333 17.5748L183.425 3.14281C182.948 2.14648 183.369 0.952217 184.365 0.475338C185.362 -0.00154114 186.556 0.419548 187.033 1.41587L194.804 17.6519ZM0.347338 62.8736C1.90107 60.5939 3.70478 58.206 5.75282 55.7527L8.8235 58.3161C6.85245 60.6772 5.128 62.9617 3.65266 65.1264L0.347338 62.8736ZM18.188 42.9723C22.3463 39.2565 27.0105 35.5466 32.168 31.9744L34.4456 35.2626C29.4253 38.7399 24.8904 42.3475 20.8533 45.955L18.188 42.9723ZM47.3484 22.7246C52.3902 20.0395 57.7688 17.5328 63.4767 15.2816L64.9443 19.0026C59.3813 21.1967 54.1404 23.6393 49.2287 26.2551L47.3484 22.7246ZM80.3441 9.70034C85.889 8.20287 91.6817 6.9579 97.717 6.01742L98.3329 9.96972C92.4437 10.8874 86.7935 12.1019 81.387 13.562L80.3441 9.70034ZM115.385 4.2151C121.11 3.93109 127.02 3.9224 133.11 4.22446L132.912 8.21955C126.953 7.92403 121.176 7.93273 115.583 8.21019L115.385 4.2151ZM150.749 5.928C156.417 6.73697 162.221 7.81344 168.16 9.18153L167.263 13.0795C161.432 11.7363 155.738 10.6807 150.184 9.88787L150.749 5.928ZM185.253 13.8293C188.03 14.6986 190.835 15.6312 193.665 16.6292L192.335 20.4015C189.549 19.4192 186.79 18.5016 184.058 17.6467L185.253 13.8293Z" fill="black"/>
</svg>
