<svg width="97" height="97" viewBox="0 0 97 97" fill="none" xmlns="http://www.w3.org/2000/svg">
<g id="ph:coin-fill" clip-path="url(#clip0_1_211)">
<path id="Vector" d="M67.7214 23.2341C60.6711 21.5784 51.908 21.896 42.3815 24.1547C32.8549 26.4133 24.882 30.0636 19.3255 34.7083C13.769 39.3529 11.2655 44.629 12.3627 49.257L15.8232 63.8524C16.9204 68.4803 21.5692 72.0767 28.5763 73.7266C35.5835 75.3765 44.3897 75.0646 53.9162 72.806C63.4428 70.5473 71.4157 66.897 76.9722 62.2524C82.5287 57.6078 85.0322 52.3317 83.935 47.7037L80.4746 33.1083C79.3773 28.4804 74.7285 24.8839 67.7214 23.2341ZM48.0117 58.7387L50.3187 68.4689C44.4966 69.6502 39.4296 69.9522 35.1833 69.6519L32.9268 60.1345C37.993 60.2743 43.0578 59.8078 48.0131 58.7448L48.0117 58.7387ZM52.8768 57.5852C57.782 56.3104 62.5171 54.4535 66.9813 52.0541L69.2385 61.5745C65.579 63.7493 60.9157 65.7541 55.1831 67.3124L52.8768 57.5852ZM20.6883 62.6989L19.3567 57.0827C21.189 57.9901 23.1222 58.6778 25.1159 59.1312C25.942 59.324 26.8057 59.4853 27.6681 59.6277L29.8604 68.8745C24.4817 67.6318 21.2859 65.2196 20.6883 62.6989ZM73.6465 58.4932L71.4542 49.2464C72.17 48.7299 72.8601 48.2001 73.5118 47.657C75.0898 46.3567 76.5085 44.8744 77.7383 43.241L79.0698 48.8572C79.6675 51.3779 77.8948 54.9681 73.6465 58.4932Z" fill="#FFC43C"/>
</g>
<defs>
<clipPath id="clip0_1_211">
<rect width="80" height="80" fill="white" transform="translate(0 18.7871) rotate(-13.338)"/>
</clipPath>
</defs>
</svg>
