<svg width="496" height="417" viewBox="0 0 496 417" fill="none" xmlns="http://www.w3.org/2000/svg">
<g filter="url(#filter0_d_1_9)">
<rect x="38" y="13" width="420" height="102" rx="8" fill="#FFD87F"/>
<rect x="39.5" y="14.5" width="417" height="99" rx="6.5" stroke="#BD8400" stroke-width="3"/>
<path d="M183.952 64.168C183.376 64.168 183 63.896 182.824 63.352L181.096 58.36L176.2 59.44L174.64 63.376C174.544 63.6 174.4 63.784 174.208 63.928C174.032 64.072 173.808 64.144 173.536 64.144C173.216 64.144 172.936 64.032 172.696 63.808C172.456 63.584 172.336 63.32 172.336 63.016C172.336 62.808 172.392 62.568 172.504 62.296L173.464 59.896C173.368 59.864 173.296 59.832 173.248 59.8C172.832 59.592 172.624 59.24 172.624 58.744C172.624 58.456 172.704 58.208 172.864 58C173.04 57.792 173.264 57.656 173.536 57.592L174.424 57.4L177.976 48.376C178.072 48.136 178.224 47.952 178.432 47.824C178.64 47.696 178.864 47.632 179.104 47.632C179.36 47.632 179.584 47.696 179.776 47.824C179.968 47.952 180.112 48.152 180.208 48.424L184.984 62.272C185 62.304 185.032 62.4 185.08 62.56C185.128 62.704 185.152 62.856 185.152 63.016C185.152 63.32 185.04 63.592 184.816 63.832C184.592 64.056 184.304 64.168 183.952 64.168ZM180.304 56.128L179.008 52.264L177.208 56.8L180.304 56.128ZM189.73 64.288C189.17 64.288 188.602 64.232 188.026 64.12C187.45 64.024 187.058 63.944 186.85 63.88C186.594 63.8 186.378 63.648 186.202 63.424C186.026 63.2 185.938 62.96 185.938 62.704V49.096C185.938 48.76 186.05 48.48 186.274 48.256C186.514 48.032 186.802 47.92 187.138 47.92C188.754 47.92 190.386 48.16 192.034 48.64C193.682 49.12 195.106 50.016 196.306 51.328C197.522 52.64 198.13 54.456 198.13 56.776C198.13 58.456 197.762 59.864 197.026 61C196.29 62.12 195.29 62.952 194.026 63.496C192.762 64.024 191.33 64.288 189.73 64.288ZM189.73 61.888C191.602 61.888 193.066 61.456 194.122 60.592C195.194 59.728 195.73 58.456 195.73 56.776C195.73 54.696 195.05 53.152 193.69 52.144C192.346 51.136 190.562 50.544 188.338 50.368V61.744C188.882 61.84 189.346 61.888 189.73 61.888ZM203.483 64.288C202.923 64.288 202.355 64.232 201.779 64.12C201.203 64.024 200.811 63.944 200.603 63.88C200.347 63.8 200.131 63.648 199.955 63.424C199.779 63.2 199.691 62.96 199.691 62.704V49.096C199.691 48.76 199.803 48.48 200.027 48.256C200.267 48.032 200.555 47.92 200.891 47.92C202.507 47.92 204.139 48.16 205.787 48.64C207.435 49.12 208.859 50.016 210.059 51.328C211.275 52.64 211.883 54.456 211.883 56.776C211.883 58.456 211.515 59.864 210.779 61C210.043 62.12 209.043 62.952 207.779 63.496C206.515 64.024 205.083 64.288 203.483 64.288ZM203.483 61.888C205.355 61.888 206.819 61.456 207.875 60.592C208.947 59.728 209.483 58.456 209.483 56.776C209.483 54.696 208.803 53.152 207.443 52.144C206.099 51.136 204.315 50.544 202.091 50.368V61.744C202.635 61.84 203.099 61.888 203.483 61.888ZM221.975 64.12C221.671 64.136 221.399 64.024 221.159 63.784C220.919 63.544 220.799 63.272 220.799 62.968V48.976C220.799 48.656 220.911 48.384 221.135 48.16C221.375 47.92 221.663 47.8 221.999 47.8C222.319 47.8 222.591 47.92 222.815 48.16C223.055 48.384 223.175 48.656 223.175 48.976V61.696L229.703 61.264C230.039 61.248 230.319 61.352 230.543 61.576C230.767 61.784 230.879 62.064 230.879 62.416C230.879 62.704 230.767 62.976 230.543 63.232C230.335 63.472 230.087 63.6 229.799 63.616L221.975 64.12ZM232.071 64C231.735 64 231.447 63.888 231.207 63.664C230.983 63.424 230.871 63.136 230.871 62.8C230.871 62.464 230.983 62.184 231.207 61.96C231.447 61.72 231.735 61.6 232.071 61.6H233.751V50.32H232.071C231.735 50.32 231.447 50.2 231.207 49.96C230.983 49.72 230.871 49.432 230.871 49.096C230.871 48.76 230.983 48.48 231.207 48.256C231.447 48.032 231.735 47.92 232.071 47.92H237.807C238.143 47.92 238.423 48.032 238.647 48.256C238.871 48.48 238.983 48.76 238.983 49.096C238.983 49.432 238.871 49.72 238.647 49.96C238.423 50.2 238.143 50.32 237.807 50.32H236.151V61.6H237.807C238.159 61.6 238.439 61.72 238.647 61.96C238.871 62.184 238.983 62.464 238.983 62.8C238.983 63.136 238.871 63.424 238.647 63.664C238.423 63.888 238.143 64 237.807 64H232.071ZM252.613 64.624C252.357 64.624 252.141 64.568 251.965 64.456L249.733 62.944C248.501 63.744 247.205 64.144 245.845 64.144C244.549 64.144 243.373 63.8 242.317 63.112C241.277 62.424 240.461 61.504 239.869 60.352C239.277 59.2 238.981 57.944 238.981 56.584C238.981 55.016 239.341 53.56 240.061 52.216C240.797 50.856 241.773 49.776 242.989 48.976C244.205 48.176 245.509 47.776 246.901 47.776C248.197 47.776 249.365 48.12 250.405 48.808C251.461 49.496 252.285 50.424 252.877 51.592C253.469 52.744 253.765 54 253.765 55.36C253.765 56.528 253.573 57.624 253.189 58.648C252.821 59.656 252.277 60.56 251.557 61.36L253.285 62.464C253.621 62.672 253.789 63.008 253.789 63.472C253.789 63.824 253.669 64.104 253.429 64.312C253.189 64.52 252.917 64.624 252.613 64.624ZM245.845 61.816C246.389 61.816 246.933 61.712 247.477 61.504L246.517 60.856C246.309 60.712 246.165 60.568 246.085 60.424C246.021 60.264 245.989 60.08 245.989 59.872C245.989 59.536 246.101 59.256 246.325 59.032C246.565 58.808 246.837 58.696 247.141 58.696C247.429 58.696 247.685 58.776 247.909 58.936L249.541 60.016C250.069 59.408 250.493 58.704 250.813 57.904C251.133 57.104 251.293 56.28 251.293 55.432C251.293 54.52 251.093 53.656 250.693 52.84C250.293 52.024 249.741 51.368 249.037 50.872C248.349 50.36 247.581 50.104 246.733 50.104C245.821 50.104 244.957 50.392 244.141 50.968C243.325 51.544 242.669 52.32 242.173 53.296C241.693 54.272 241.453 55.336 241.453 56.488C241.453 57.464 241.637 58.36 242.005 59.176C242.389 59.992 242.917 60.64 243.589 61.12C244.261 61.584 245.013 61.816 245.845 61.816ZM261.308 64.144C259.98 64.144 258.836 63.776 257.876 63.04C256.932 62.304 256.196 61.272 255.668 59.944C255.156 58.616 254.868 57.08 254.804 55.336C254.772 53.992 254.756 53.08 254.756 52.6L254.78 50.752C254.796 50.352 254.804 49.744 254.804 48.928C254.804 48.672 254.9 48.424 255.092 48.184C255.3 47.928 255.62 47.8 256.052 47.8C256.468 47.8 256.764 47.928 256.94 48.184C257.116 48.424 257.204 48.68 257.204 48.952L257.18 50.68C257.164 51.016 257.156 51.528 257.156 52.216C257.156 52.728 257.172 53.656 257.204 55C257.268 57.032 257.612 58.696 258.236 59.992C258.876 61.288 259.916 61.936 261.356 61.936C262.476 61.936 263.428 61.584 264.212 60.88C264.996 60.16 265.476 59.024 265.652 57.472C265.796 56.096 265.868 54.552 265.868 52.84L265.844 49C265.844 48.712 265.932 48.44 266.108 48.184C266.284 47.928 266.596 47.8 267.044 47.8C267.492 47.8 267.796 47.928 267.956 48.184C268.132 48.424 268.22 48.68 268.22 48.952L268.244 49.624C268.292 51.256 268.316 52.368 268.316 52.96C268.316 54.608 268.22 56.176 268.028 57.664C267.756 59.696 267.076 61.288 265.988 62.44C264.9 63.576 263.34 64.144 261.308 64.144ZM270.331 64C269.995 64 269.707 63.888 269.467 63.664C269.243 63.424 269.131 63.136 269.131 62.8C269.131 62.464 269.243 62.184 269.467 61.96C269.707 61.72 269.995 61.6 270.331 61.6H272.011V50.32H270.331C269.995 50.32 269.707 50.2 269.467 49.96C269.243 49.72 269.131 49.432 269.131 49.096C269.131 48.76 269.243 48.48 269.467 48.256C269.707 48.032 269.995 47.92 270.331 47.92H276.067C276.403 47.92 276.683 48.032 276.907 48.256C277.131 48.48 277.243 48.76 277.243 49.096C277.243 49.432 277.131 49.72 276.907 49.96C276.683 50.2 276.403 50.32 276.067 50.32H274.411V61.6H276.067C276.419 61.6 276.699 61.72 276.907 61.96C277.131 62.184 277.243 62.464 277.243 62.8C277.243 63.136 277.131 63.424 276.907 63.664C276.683 63.888 276.403 64 276.067 64H270.331ZM282.481 64.288C281.921 64.288 281.353 64.232 280.777 64.12C280.201 64.024 279.809 63.944 279.601 63.88C279.345 63.8 279.129 63.648 278.953 63.424C278.777 63.2 278.689 62.96 278.689 62.704V49.096C278.689 48.76 278.801 48.48 279.025 48.256C279.265 48.032 279.553 47.92 279.889 47.92C281.505 47.92 283.137 48.16 284.785 48.64C286.433 49.12 287.857 50.016 289.057 51.328C290.273 52.64 290.881 54.456 290.881 56.776C290.881 58.456 290.513 59.864 289.777 61C289.041 62.12 288.041 62.952 286.777 63.496C285.513 64.024 284.081 64.288 282.481 64.288ZM282.481 61.888C284.353 61.888 285.817 61.456 286.873 60.592C287.945 59.728 288.481 58.456 288.481 56.776C288.481 54.696 287.801 53.152 286.441 52.144C285.097 51.136 283.313 50.544 281.089 50.368V61.744C281.633 61.84 282.097 61.888 282.481 61.888ZM292.001 64C291.665 64 291.377 63.888 291.137 63.664C290.913 63.424 290.801 63.136 290.801 62.8C290.801 62.464 290.913 62.184 291.137 61.96C291.377 61.72 291.665 61.6 292.001 61.6H293.681V50.32H292.001C291.665 50.32 291.377 50.2 291.137 49.96C290.913 49.72 290.801 49.432 290.801 49.096C290.801 48.76 290.913 48.48 291.137 48.256C291.377 48.032 291.665 47.92 292.001 47.92H297.737C298.073 47.92 298.353 48.032 298.577 48.256C298.801 48.48 298.913 48.76 298.913 49.096C298.913 49.432 298.801 49.72 298.577 49.96C298.353 50.2 298.073 50.32 297.737 50.32H296.081V61.6H297.737C298.089 61.6 298.369 61.72 298.577 61.96C298.801 62.184 298.913 62.464 298.913 62.8C298.913 63.136 298.801 63.424 298.577 63.664C298.353 63.888 298.073 64 297.737 64H292.001ZM304.848 64.144C304.528 64.144 304.248 64.032 304.008 63.808C303.768 63.568 303.648 63.288 303.648 62.968V50.32H299.88C299.56 50.32 299.28 50.2 299.04 49.96C298.816 49.72 298.704 49.44 298.704 49.12C298.704 48.784 298.816 48.504 299.04 48.28C299.28 48.056 299.56 47.944 299.88 47.944H309.816C310.152 47.944 310.432 48.056 310.656 48.28C310.88 48.504 310.992 48.784 310.992 49.12C310.992 49.456 310.88 49.744 310.656 49.984C310.432 50.208 310.152 50.32 309.816 50.32H306.024V62.968C306.024 63.288 305.904 63.568 305.664 63.808C305.44 64.032 305.168 64.144 304.848 64.144ZM314.458 64.144C314.138 64.144 313.858 64.024 313.618 63.784C313.394 63.544 313.282 63.272 313.282 62.968C313.282 62.84 313.29 62.736 313.306 62.656C313.338 62.56 313.394 62.44 313.474 62.296L315.562 58.792L310.234 49.672C310.106 49.432 310.042 49.2 310.042 48.976C310.042 48.656 310.154 48.384 310.378 48.16C310.618 47.92 310.906 47.8 311.242 47.8C311.434 47.8 311.618 47.856 311.794 47.968C311.986 48.064 312.138 48.208 312.25 48.4L316.954 56.44L321.73 48.376C321.842 48.184 321.986 48.04 322.162 47.944C322.354 47.848 322.554 47.8 322.762 47.8C323.066 47.8 323.338 47.92 323.578 48.16C323.818 48.384 323.938 48.656 323.938 48.976C323.938 49.12 323.922 49.24 323.89 49.336C323.858 49.432 323.794 49.568 323.698 49.744L315.49 63.544C315.378 63.736 315.226 63.888 315.034 64C314.858 64.096 314.666 64.144 314.458 64.144Z" fill="black"/>
</g>
<g filter="url(#filter1_d_1_9)">
<rect x="38" y="91" width="420" height="267" rx="8" fill="white"/>
<rect x="39.5" y="92.5" width="417" height="264" rx="6.5" stroke="#BD8400" stroke-width="3"/>
<rect x="65.5" y="118.5" width="365" height="212" rx="7.5" fill="black" fill-opacity="0.02"/>
<rect x="65.5" y="118.5" width="365" height="212" rx="7.5" stroke="black"/>
<path d="M98.9182 159.507C98.6985 159.507 98.5174 159.393 98.375 159.165C98.2529 158.969 98.1431 158.644 98.0454 158.188L97.8257 157.138C97.6589 156.487 97.3944 155.051 97.0322 152.829L95.8115 156.51L95.4514 157.669C95.3049 158.129 95.1523 158.506 94.9937 158.799C94.8228 159.108 94.5929 159.262 94.304 159.262C94.0639 159.262 93.8747 159.132 93.7363 158.872C93.6468 158.701 93.5654 158.483 93.4922 158.219L93.3152 157.541C92.9042 156.105 92.5421 154.567 92.2288 152.927L92.009 154.02L91.2217 157.242C91.1891 157.621 91.0874 158.18 90.9165 158.921C90.7944 159.238 90.593 159.397 90.3123 159.397C90.1129 159.397 89.9542 159.326 89.8362 159.183C89.7345 159.061 89.6836 158.91 89.6836 158.731C89.6836 158.052 89.824 157.218 90.1047 156.229L90.7761 153.769L91.1301 151.847C91.3092 150.947 91.4984 150.359 91.6978 150.083C91.8605 149.847 92.0619 149.729 92.302 149.729C92.5665 149.729 92.7638 149.879 92.894 150.18C93.0527 150.543 93.2236 151.281 93.4067 152.396C93.6224 153.735 93.9581 155.183 94.4138 156.742C95.016 155.175 95.5369 153.543 95.9763 151.847L96.1594 150.956C96.2327 150.597 96.3283 150.309 96.4463 150.089C96.605 149.788 96.8227 149.637 97.0994 149.637C97.4493 149.637 97.7158 149.975 97.8989 150.65C97.964 150.882 98.0434 151.362 98.137 152.091C98.377 153.93 98.6761 155.501 99.0342 156.803L99.3333 157.853C99.4879 158.414 99.5652 158.76 99.5652 158.89C99.5652 159.065 99.498 159.212 99.3638 159.33C99.2336 159.448 99.085 159.507 98.9182 159.507ZM107.188 151.194C107.091 151.348 106.961 151.586 106.798 151.908L105.748 154.502C105.341 155.474 104.959 156.325 104.601 157.053L103.838 158.414L103.514 159.073C103.38 159.309 103.199 159.427 102.971 159.427C102.812 159.427 102.668 159.368 102.538 159.25C102.407 159.132 102.342 158.986 102.342 158.811C102.342 158.672 102.534 158.239 102.916 157.511L103.667 156.137C102.938 155.198 102.466 154.457 102.251 153.916C102.068 153.456 101.762 152.905 101.335 152.262C100.749 151.383 100.405 150.852 100.304 150.669C100.243 150.559 100.212 150.449 100.212 150.339C100.212 150.164 100.275 150.018 100.401 149.9C100.532 149.778 100.678 149.717 100.841 149.717C101.04 149.717 101.207 149.812 101.341 150.003L101.83 150.76C102.261 151.399 102.546 151.834 102.684 152.066C102.989 152.567 103.227 153.031 103.398 153.458C103.532 153.796 103.819 154.258 104.259 154.844L105.656 151.438C105.815 151.157 106.035 150.724 106.316 150.138C106.43 149.861 106.619 149.723 106.883 149.723C107.046 149.723 107.191 149.78 107.317 149.894C107.447 150.007 107.512 150.154 107.512 150.333C107.512 150.52 107.404 150.807 107.188 151.194ZM117.973 158.75C117.514 158.965 116.791 159.159 115.807 159.33C114.899 159.488 114.159 159.568 113.585 159.568C113.174 159.568 112.879 159.505 112.7 159.378C112.456 159.208 112.334 158.894 112.334 158.438L112.456 156.418C112.562 154.555 112.615 152.488 112.615 150.217C112.615 150.042 112.671 149.894 112.785 149.771C112.903 149.649 113.048 149.588 113.219 149.588C113.394 149.588 113.538 149.649 113.652 149.771C113.77 149.894 113.829 150.042 113.829 150.217C113.829 152.516 113.774 154.608 113.664 156.491L113.585 157.419C113.552 157.757 113.54 158.056 113.548 158.316C114.61 158.329 115.953 158.078 117.577 157.566C117.646 157.545 117.711 157.535 117.772 157.535C117.947 157.535 118.093 157.604 118.211 157.743C118.313 157.869 118.364 158.013 118.364 158.176C118.364 158.436 118.234 158.628 117.973 158.75ZM121.123 155.417C121.009 155.417 120.761 155.391 120.378 155.338C120.346 155.952 120.329 157.029 120.329 158.567C120.329 158.729 120.276 158.868 120.171 158.982C120.065 159.092 119.933 159.146 119.774 159.146C119.611 159.146 119.477 159.092 119.371 158.982C119.265 158.868 119.212 158.729 119.212 158.567V156.772C119.212 156.174 119.249 155.332 119.322 154.245C119.404 153.069 119.448 152.227 119.457 151.719V150.876C119.457 150.473 119.481 150.18 119.53 149.997C119.623 149.639 119.823 149.485 120.128 149.533C120.258 149.493 120.443 149.462 120.683 149.442C120.923 149.422 121.218 149.411 121.568 149.411C122.313 149.411 123.011 149.666 123.662 150.174C124.378 150.736 124.736 151.411 124.736 152.201C124.736 153.21 124.354 154.013 123.589 154.612C122.905 155.149 122.083 155.417 121.123 155.417ZM121.428 150.571C121.249 150.571 121.088 150.575 120.946 150.583C120.807 150.591 120.689 150.604 120.592 150.62L120.58 151.743L120.451 154.172L121.123 154.251C121.806 154.251 122.382 154.079 122.85 153.733C123.363 153.354 123.619 152.844 123.619 152.201C123.619 151.745 123.375 151.352 122.887 151.023C122.435 150.722 121.949 150.571 121.428 150.571ZM137.157 151.291C136.856 151.291 136.392 151.267 135.765 151.218C135.155 151.173 134.691 151.153 134.374 151.157H133.94C133.952 151.719 134.007 152.63 134.105 153.891C134.194 155.067 134.239 155.981 134.239 156.632C134.239 156.774 134.253 156.99 134.282 157.279C134.31 157.568 134.325 157.785 134.325 157.932C134.325 158.209 134.28 158.447 134.19 158.646C134.076 158.915 133.899 159.049 133.659 159.049C133.497 159.049 133.35 158.992 133.22 158.878C133.09 158.764 133.025 158.618 133.025 158.438C133.025 158.377 133.035 158.286 133.055 158.164C133.076 158.042 133.086 157.95 133.086 157.889C133.086 157.69 133.071 157.391 133.043 156.992C133.019 156.593 133.006 156.292 133.006 156.089C133.006 155.507 132.96 154.689 132.866 153.635C132.768 152.496 132.713 151.678 132.701 151.181L132.146 151.188C131.255 151.188 130.555 151.122 130.046 150.992C129.717 150.907 129.552 150.705 129.552 150.388C129.552 150.221 129.605 150.075 129.71 149.948C129.833 149.806 129.989 149.741 130.18 149.753C130.323 149.761 130.648 149.798 131.157 149.863C131.564 149.912 131.893 149.936 132.146 149.936C132.39 149.936 132.76 149.932 133.257 149.924C133.753 149.912 134.123 149.906 134.367 149.906C134.681 149.906 135.145 149.928 135.759 149.973C136.378 150.018 136.843 150.04 137.157 150.04C137.332 150.04 137.478 150.101 137.596 150.223C137.714 150.341 137.773 150.49 137.773 150.669C137.773 150.844 137.714 150.992 137.596 151.114C137.478 151.232 137.332 151.291 137.157 151.291ZM142.235 159.372C141.087 159.372 140.115 159.028 139.317 158.341C138.471 157.608 138.048 156.664 138.048 155.509C138.048 154.101 138.465 152.821 139.299 151.67C140.231 150.392 141.393 149.753 142.784 149.753C144.123 149.753 145.118 150.054 145.769 150.656C146.448 151.283 146.788 152.272 146.788 153.623C146.788 155.031 146.406 156.3 145.641 157.431C144.762 158.725 143.626 159.372 142.235 159.372ZM142.784 151.004C141.787 151.004 140.943 151.501 140.251 152.494C139.612 153.405 139.293 154.41 139.293 155.509C139.293 156.294 139.584 156.933 140.166 157.425C140.723 157.889 141.413 158.121 142.235 158.121C143.224 158.121 144.039 157.623 144.682 156.626C145.256 155.735 145.543 154.734 145.543 153.623C145.543 152.65 145.325 151.967 144.89 151.572C144.475 151.194 143.773 151.004 142.784 151.004ZM154.363 159.25C153.744 159.25 152.863 158.707 151.72 157.621L149.895 155.783V155.869L149.889 159.067C149.889 159.47 149.712 159.671 149.358 159.671C149.126 159.671 148.941 159.57 148.802 159.366C148.688 159.199 148.631 159.018 148.631 158.823C148.631 157.871 148.66 156.447 148.717 154.551C148.774 152.654 148.802 151.232 148.802 150.284C148.802 150.109 148.859 149.961 148.973 149.839C149.091 149.717 149.236 149.656 149.406 149.656C149.581 149.656 149.726 149.717 149.84 149.839C149.958 149.961 150.017 150.109 150.017 150.284C150.017 150.679 149.992 151.293 149.944 152.127C149.895 152.933 149.872 153.55 149.876 153.977C150.422 153.46 151.038 152.811 151.726 152.03L153.478 149.997C153.616 149.839 153.771 149.759 153.941 149.759C154.104 149.759 154.249 149.82 154.375 149.942C154.501 150.064 154.564 150.213 154.564 150.388C154.564 150.656 154.039 151.373 152.989 152.536C152.265 153.33 151.516 154.107 150.743 154.868C151.231 155.381 151.996 156.117 153.038 157.077L153.679 157.615C153.911 157.794 154.161 157.928 154.43 158.017C154.751 158.123 154.912 158.325 154.912 158.622C154.912 158.76 154.869 158.892 154.784 159.018C154.678 159.173 154.538 159.25 154.363 159.25ZM161.772 150.785C161.715 150.785 161.652 150.774 161.583 150.754C160.895 150.559 160.232 150.461 159.593 150.461C159.26 150.461 158.895 150.492 158.501 150.553C158.106 150.614 157.681 150.707 157.225 150.833C157.262 151.098 157.28 151.31 157.28 151.468C157.28 152.034 157.245 152.811 157.176 153.8L159.85 153.543C160.635 153.462 161.117 153.421 161.296 153.421C161.475 153.421 161.626 153.478 161.748 153.592C161.87 153.706 161.931 153.859 161.931 154.05C161.931 154.42 161.744 154.628 161.369 154.673L159.917 154.801L157.097 155.057C157.081 155.346 157.066 155.621 157.054 155.881C157.046 156.137 157.042 156.378 157.042 156.601C157.042 157.501 157.107 158.03 157.237 158.188C157.335 158.302 157.654 158.359 158.196 158.359C158.448 158.359 158.826 158.353 159.331 158.341C159.839 158.325 160.222 158.316 160.478 158.316C160.56 158.316 160.68 158.304 160.838 158.28C160.997 158.251 161.115 158.237 161.192 158.237C161.624 158.237 161.839 158.449 161.839 158.872C161.839 159.214 161.666 159.419 161.321 159.488C160.938 159.566 160.11 159.604 158.836 159.604C157.575 159.604 156.765 159.437 156.407 159.104C156.017 158.742 155.821 157.907 155.821 156.601C155.821 156.341 155.827 156.056 155.84 155.747C155.852 155.438 155.868 155.104 155.888 154.746C155.844 154.652 155.821 154.553 155.821 154.447C155.821 154.308 155.86 154.184 155.937 154.074C156.019 152.899 156.059 152.03 156.059 151.468C156.059 151.318 156.039 151.098 155.998 150.809C155.958 150.516 155.937 150.294 155.937 150.144C155.937 149.66 156.141 149.417 156.548 149.417C156.719 149.417 156.865 149.476 156.987 149.594C157.475 149.464 157.935 149.367 158.366 149.302C158.802 149.236 159.211 149.204 159.593 149.204C160.582 149.204 161.371 149.322 161.961 149.558C162.234 149.668 162.37 149.863 162.37 150.144C162.37 150.307 162.317 150.451 162.212 150.577C162.094 150.715 161.947 150.785 161.772 150.785ZM172.185 157.645C172.185 157.84 172.152 158.166 172.087 158.622C172.022 159.033 171.804 159.238 171.434 159.238C171.21 159.238 170.944 159.092 170.635 158.799C168.978 157.232 167.078 154.972 164.934 152.018L164.903 153.403L164.885 154.795C164.885 155.132 164.891 155.639 164.903 156.314C164.92 156.99 164.928 157.499 164.928 157.84C164.928 158.935 164.716 159.482 164.293 159.482C164.069 159.482 163.892 159.411 163.762 159.269C163.644 159.142 163.585 158.992 163.585 158.817C163.585 158.646 163.597 158.388 163.622 158.042C163.65 157.696 163.664 157.438 163.664 157.267C163.664 157.014 163.672 156.638 163.689 156.137C163.705 155.633 163.713 155.254 163.713 155.002C163.713 154.734 163.707 154.329 163.695 153.788C163.683 153.242 163.677 152.835 163.677 152.567C163.677 152.311 163.652 151.93 163.603 151.426C163.554 150.917 163.53 150.534 163.53 150.278C163.53 150.091 163.609 149.92 163.768 149.765C163.931 149.611 164.114 149.533 164.317 149.533C164.533 149.533 164.8 149.769 165.117 150.241C166.13 151.759 167.042 153.021 167.851 154.026C168.816 155.218 169.874 156.357 171.025 157.444C171.037 157.269 171.037 157.01 171.025 156.668L171.007 155.899C171.007 154.113 170.938 152.691 170.799 151.633C170.783 151.527 170.728 151.314 170.635 150.992C170.553 150.715 170.512 150.5 170.512 150.345C170.512 149.873 170.728 149.637 171.159 149.637C171.867 149.637 172.221 150.958 172.221 153.598C172.221 154.05 172.215 154.726 172.203 155.625C172.191 156.52 172.185 157.193 172.185 157.645ZM173.558 157.48C173.554 157.309 173.611 157.171 173.729 157.065C173.851 156.955 174 156.9 174.175 156.9C174.374 156.9 174.549 157.014 174.699 157.242C174.907 157.551 175.092 157.761 175.255 157.871C175.601 158.099 176.103 158.213 176.762 158.213C177.393 158.213 177.979 158.076 178.52 157.804C179.212 157.454 179.558 156.968 179.558 156.345C179.558 155.832 179.267 155.427 178.685 155.13C178.193 154.874 177.584 154.736 176.86 154.715C176.217 154.691 175.67 154.551 175.218 154.294C174.64 153.965 174.352 153.493 174.352 152.878C174.352 152.154 174.763 151.493 175.584 150.895C176.37 150.329 177.182 150.046 178.02 150.046C178.414 150.046 178.86 150.113 179.356 150.248C180.016 150.423 180.345 150.646 180.345 150.919C180.345 151.277 180.162 151.456 179.796 151.456C179.633 151.456 179.348 151.413 178.941 151.328C178.535 151.238 178.219 151.196 177.995 151.2C177.361 151.208 176.821 151.365 176.378 151.67C175.922 151.983 175.694 152.363 175.694 152.811C175.694 153.149 175.995 153.387 176.598 153.525C176.821 153.578 177.255 153.627 177.898 153.672C178.83 153.741 179.558 154.034 180.083 154.551C180.563 155.023 180.803 155.598 180.803 156.278C180.803 157.246 180.355 158.019 179.46 158.597C178.683 159.098 177.782 159.348 176.756 159.348C176.012 159.348 175.33 159.205 174.712 158.921C173.955 158.571 173.57 158.091 173.558 157.48Z" fill="black"/>
<path d="M362.062 159.129C361.367 159.129 360.775 158.94 360.285 158.561C359.796 158.18 359.422 157.627 359.163 156.904C358.905 156.178 358.776 155.301 358.776 154.273C358.776 153.251 358.905 152.378 359.163 151.655C359.425 150.929 359.8 150.375 360.29 149.993C360.782 149.609 361.373 149.416 362.062 149.416C362.752 149.416 363.341 149.609 363.831 149.993C364.323 150.375 364.699 150.929 364.957 151.655C365.219 152.378 365.349 153.251 365.349 154.273C365.349 155.301 365.22 156.178 364.962 156.904C364.703 157.627 364.329 158.18 363.84 158.561C363.35 158.94 362.758 159.129 362.062 159.129ZM362.062 158.114C362.752 158.114 363.287 157.781 363.669 157.116C364.051 156.452 364.241 155.504 364.241 154.273C364.241 153.454 364.154 152.757 363.978 152.181C363.806 151.606 363.557 151.167 363.23 150.866C362.907 150.564 362.518 150.413 362.062 150.413C361.379 150.413 360.845 150.75 360.461 151.424C360.076 152.095 359.884 153.045 359.884 154.273C359.884 155.091 359.97 155.787 360.142 156.359C360.314 156.932 360.562 157.367 360.885 157.666C361.212 157.964 361.604 158.114 362.062 158.114ZM367.586 159.074C367.358 159.074 367.163 158.992 367 158.829C366.837 158.666 366.755 158.471 366.755 158.243C366.755 158.015 366.837 157.82 367 157.657C367.163 157.493 367.358 157.412 367.586 157.412C367.814 157.412 368.009 157.493 368.172 157.657C368.336 157.82 368.417 158.015 368.417 158.243C368.417 158.394 368.379 158.532 368.302 158.658C368.228 158.785 368.128 158.886 368.002 158.963C367.878 159.037 367.74 159.074 367.586 159.074ZM373.107 159.129C372.412 159.129 371.819 158.94 371.33 158.561C370.841 158.18 370.467 157.627 370.208 156.904C369.95 156.178 369.82 155.301 369.82 154.273C369.82 153.251 369.95 152.378 370.208 151.655C370.47 150.929 370.845 150.375 371.335 149.993C371.827 149.609 372.418 149.416 373.107 149.416C373.797 149.416 374.386 149.609 374.876 149.993C375.368 150.375 375.743 150.929 376.002 151.655C376.264 152.378 376.394 153.251 376.394 154.273C376.394 155.301 376.265 156.178 376.007 156.904C375.748 157.627 375.374 158.18 374.885 158.561C374.395 158.94 373.803 159.129 373.107 159.129ZM373.107 158.114C373.797 158.114 374.332 157.781 374.714 157.116C375.096 156.452 375.286 155.504 375.286 154.273C375.286 153.454 375.199 152.757 375.023 152.181C374.851 151.606 374.602 151.167 374.275 150.866C373.952 150.564 373.563 150.413 373.107 150.413C372.424 150.413 371.89 150.75 371.506 151.424C371.121 152.095 370.928 153.045 370.928 154.273C370.928 155.091 371.015 155.787 371.187 156.359C371.359 156.932 371.607 157.367 371.93 157.666C372.256 157.964 372.649 158.114 373.107 158.114ZM381.232 159.129C380.537 159.129 379.944 158.94 379.455 158.561C378.966 158.18 378.592 157.627 378.333 156.904C378.075 156.178 377.945 155.301 377.945 154.273C377.945 153.251 378.075 152.378 378.333 151.655C378.595 150.929 378.97 150.375 379.46 149.993C379.952 149.609 380.543 149.416 381.232 149.416C381.922 149.416 382.511 149.609 383.001 149.993C383.493 150.375 383.868 150.929 384.127 151.655C384.389 152.378 384.519 153.251 384.519 154.273C384.519 155.301 384.39 156.178 384.132 156.904C383.873 157.627 383.499 158.18 383.01 158.561C382.52 158.94 381.928 159.129 381.232 159.129ZM381.232 158.114C381.922 158.114 382.457 157.781 382.839 157.116C383.221 156.452 383.411 155.504 383.411 154.273C383.411 153.454 383.324 152.757 383.148 152.181C382.976 151.606 382.727 151.167 382.4 150.866C382.077 150.564 381.688 150.413 381.232 150.413C380.549 150.413 380.015 150.75 379.631 151.424C379.246 152.095 379.053 153.045 379.053 154.273C379.053 155.091 379.14 155.787 379.312 156.359C379.484 156.932 379.732 157.367 380.055 157.666C380.381 157.964 380.774 158.114 381.232 158.114ZM390.096 159V149.545H391.241V157.984H395.636V159H390.096ZM397.409 159V149.545H400.603C401.345 149.545 401.951 149.679 402.422 149.947C402.896 150.212 403.247 150.57 403.475 151.023C403.702 151.475 403.816 151.98 403.816 152.537C403.816 153.094 403.702 153.6 403.475 154.056C403.25 154.511 402.902 154.874 402.431 155.145C401.96 155.413 401.357 155.547 400.622 155.547H398.332V154.531H400.585C401.093 154.531 401.5 154.444 401.808 154.268C402.116 154.093 402.339 153.856 402.477 153.557C402.619 153.256 402.69 152.915 402.69 152.537C402.69 152.158 402.619 151.82 402.477 151.521C402.339 151.223 402.114 150.989 401.803 150.82C401.493 150.647 401.08 150.561 400.566 150.561H398.553V159H397.409Z" fill="black"/>
<path d="M381.043 176.955V167.409H381.655V176.955H381.043ZM383.101 170.273C383.057 169.895 382.875 169.602 382.557 169.393C382.239 169.184 381.849 169.08 381.386 169.08C381.048 169.08 380.752 169.134 380.499 169.244C380.248 169.353 380.051 169.503 379.91 169.695C379.771 169.886 379.701 170.104 379.701 170.347C379.701 170.551 379.749 170.726 379.846 170.873C379.946 171.017 380.073 171.138 380.227 171.235C380.381 171.329 380.542 171.407 380.711 171.47C380.88 171.529 381.036 171.578 381.177 171.615L381.953 171.824C382.152 171.876 382.373 171.948 382.617 172.04C382.863 172.132 383.098 172.258 383.321 172.417C383.548 172.573 383.734 172.775 383.881 173.021C384.027 173.267 384.101 173.569 384.101 173.927C384.101 174.339 383.993 174.712 383.776 175.045C383.563 175.379 383.249 175.643 382.837 175.84C382.427 176.036 381.928 176.134 381.342 176.134C380.795 176.134 380.321 176.046 379.921 175.869C379.523 175.693 379.21 175.447 378.981 175.131C378.755 174.816 378.627 174.449 378.597 174.031H379.552C379.577 174.32 379.674 174.558 379.843 174.747C380.014 174.934 380.23 175.073 380.491 175.165C380.755 175.254 381.038 175.299 381.342 175.299C381.695 175.299 382.011 175.242 382.292 175.127C382.573 175.011 382.796 174.849 382.96 174.643C383.124 174.434 383.206 174.19 383.206 173.912C383.206 173.658 383.135 173.452 382.993 173.293C382.852 173.134 382.665 173.005 382.434 172.905C382.203 172.806 381.953 172.719 381.685 172.644L380.745 172.376C380.148 172.204 379.676 171.959 379.328 171.641C378.98 171.323 378.806 170.907 378.806 170.392C378.806 169.964 378.922 169.592 379.153 169.273C379.386 168.953 379.7 168.704 380.092 168.528C380.488 168.349 380.929 168.259 381.416 168.259C381.908 168.259 382.346 168.347 382.729 168.524C383.111 168.698 383.415 168.937 383.638 169.24C383.865 169.543 383.984 169.887 383.996 170.273H383.101ZM387.978 176.104C387.416 176.104 386.937 175.952 386.542 175.646C386.147 175.338 385.845 174.891 385.636 174.307C385.427 173.721 385.323 173.012 385.323 172.182C385.323 171.357 385.427 170.652 385.636 170.068C385.847 169.481 386.151 169.034 386.546 168.725C386.944 168.415 387.421 168.259 387.978 168.259C388.534 168.259 389.011 168.415 389.406 168.725C389.803 169.034 390.107 169.481 390.316 170.068C390.527 170.652 390.633 171.357 390.633 172.182C390.633 173.012 390.528 173.721 390.319 174.307C390.11 174.891 389.808 175.338 389.413 175.646C389.018 175.952 388.539 176.104 387.978 176.104ZM387.978 175.284C388.534 175.284 388.967 175.016 389.275 174.479C389.584 173.942 389.738 173.176 389.738 172.182C389.738 171.521 389.667 170.958 389.525 170.493C389.386 170.028 389.185 169.674 388.921 169.43C388.66 169.186 388.346 169.065 387.978 169.065C387.426 169.065 386.995 169.337 386.684 169.881C386.373 170.423 386.218 171.19 386.218 172.182C386.218 172.843 386.287 173.405 386.427 173.867C386.566 174.33 386.766 174.681 387.027 174.922C387.29 175.164 387.607 175.284 387.978 175.284ZM392.439 176.06C392.255 176.06 392.097 175.994 391.966 175.862C391.834 175.73 391.768 175.572 391.768 175.388C391.768 175.205 391.834 175.047 391.966 174.915C392.097 174.783 392.255 174.717 392.439 174.717C392.623 174.717 392.781 174.783 392.913 174.915C393.044 175.047 393.11 175.205 393.11 175.388C393.11 175.51 393.079 175.622 393.017 175.724C392.957 175.826 392.877 175.908 392.775 175.97C392.675 176.03 392.563 176.06 392.439 176.06ZM396.899 176.104C396.337 176.104 395.858 175.952 395.463 175.646C395.068 175.338 394.766 174.891 394.557 174.307C394.348 173.721 394.244 173.012 394.244 172.182C394.244 171.357 394.348 170.652 394.557 170.068C394.768 169.481 395.072 169.034 395.467 168.725C395.864 168.415 396.342 168.259 396.899 168.259C397.455 168.259 397.931 168.415 398.327 168.725C398.724 169.034 399.028 169.481 399.236 170.068C399.448 170.652 399.553 171.357 399.553 172.182C399.553 173.012 399.449 173.721 399.24 174.307C399.031 174.891 398.729 175.338 398.334 175.646C397.939 175.952 397.46 176.104 396.899 176.104ZM396.899 175.284C397.455 175.284 397.888 175.016 398.196 174.479C398.504 173.942 398.659 173.176 398.659 172.182C398.659 171.521 398.588 170.958 398.446 170.493C398.307 170.028 398.105 169.674 397.842 169.43C397.581 169.186 397.266 169.065 396.899 169.065C396.347 169.065 395.915 169.337 395.605 169.881C395.294 170.423 395.139 171.19 395.139 172.182C395.139 172.843 395.208 173.405 395.347 173.867C395.487 174.33 395.687 174.681 395.948 174.922C396.211 175.164 396.528 175.284 396.899 175.284ZM403.461 176.104C402.899 176.104 402.421 175.952 402.026 175.646C401.63 175.338 401.328 174.891 401.119 174.307C400.911 173.721 400.806 173.012 400.806 172.182C400.806 171.357 400.911 170.652 401.119 170.068C401.331 169.481 401.634 169.034 402.029 168.725C402.427 168.415 402.904 168.259 403.461 168.259C404.018 168.259 404.494 168.415 404.889 168.725C405.287 169.034 405.59 169.481 405.799 170.068C406.01 170.652 406.116 171.357 406.116 172.182C406.116 173.012 406.012 173.721 405.803 174.307C405.594 174.891 405.292 175.338 404.897 175.646C404.501 175.952 404.023 176.104 403.461 176.104ZM403.461 175.284C404.018 175.284 404.45 175.016 404.759 174.479C405.067 173.942 405.221 173.176 405.221 172.182C405.221 171.521 405.15 170.958 405.008 170.493C404.869 170.028 404.668 169.674 404.404 169.43C404.143 169.186 403.829 169.065 403.461 169.065C402.909 169.065 402.478 169.337 402.167 169.881C401.856 170.423 401.701 171.19 401.701 172.182C401.701 172.843 401.771 173.405 401.91 173.867C402.049 174.33 402.249 174.681 402.51 174.922C402.774 175.164 403.091 175.284 403.461 175.284Z" fill="black" fill-opacity="0.6"/>
<path d="M97.2299 198.868C96.9318 198.868 96.4725 198.844 95.8522 198.796C95.2479 198.752 94.7887 198.731 94.4745 198.735H94.0455C94.0576 199.291 94.1119 200.194 94.2086 201.442C94.2972 202.607 94.3416 203.511 94.3416 204.156C94.3416 204.297 94.3557 204.51 94.3839 204.796C94.412 205.082 94.4261 205.298 94.4261 205.443C94.4261 205.716 94.3818 205.952 94.2932 206.15C94.1804 206.415 94.0052 206.548 93.7675 206.548C93.6064 206.548 93.4614 206.492 93.3325 206.379C93.2036 206.266 93.1391 206.121 93.1391 205.944C93.1391 205.884 93.1492 205.793 93.1693 205.672C93.1895 205.551 93.1995 205.461 93.1995 205.4C93.1995 205.203 93.1854 204.907 93.1572 204.512C93.1331 204.117 93.121 203.819 93.121 203.618C93.121 203.042 93.0746 202.232 92.982 201.189C92.8853 200.061 92.8309 199.251 92.8188 198.76L92.269 198.766C91.3868 198.766 90.6939 198.701 90.1904 198.572C89.8641 198.488 89.7009 198.288 89.7009 197.974C89.7009 197.809 89.7533 197.664 89.858 197.539C89.9789 197.398 90.134 197.334 90.3233 197.346C90.4643 197.354 90.7866 197.39 91.2901 197.454C91.6929 197.503 92.0192 197.527 92.269 197.527C92.5107 197.527 92.8773 197.523 93.3687 197.515C93.8602 197.503 94.2267 197.497 94.4684 197.497C94.7786 197.497 95.2379 197.519 95.8461 197.563C96.4584 197.607 96.9197 197.63 97.2299 197.63C97.4031 197.63 97.5481 197.69 97.6649 197.811C97.7817 197.928 97.8401 198.075 97.8401 198.252C97.8401 198.425 97.7817 198.572 97.6649 198.693C97.5481 198.81 97.4031 198.868 97.2299 198.868ZM102.257 206.869C101.121 206.869 100.158 206.528 99.3689 205.847C98.531 205.122 98.1121 204.188 98.1121 203.044C98.1121 201.65 98.525 200.383 99.3508 199.243C100.273 197.978 101.423 197.346 102.801 197.346C104.126 197.346 105.111 197.644 105.756 198.24C106.429 198.86 106.765 199.839 106.765 201.177C106.765 202.57 106.386 203.827 105.629 204.947C104.759 206.228 103.635 206.869 102.257 206.869ZM102.801 198.584C101.814 198.584 100.978 199.076 100.293 200.059C99.6609 200.961 99.3447 201.956 99.3447 203.044C99.3447 203.821 99.6328 204.454 100.209 204.941C100.761 205.4 101.443 205.63 102.257 205.63C103.236 205.63 104.044 205.136 104.68 204.149C105.248 203.267 105.532 202.276 105.532 201.177C105.532 200.214 105.317 199.537 104.886 199.146C104.475 198.772 103.78 198.584 102.801 198.584ZM115.526 198.868C115.228 198.868 114.769 198.844 114.149 198.796C113.545 198.752 113.085 198.731 112.771 198.735H112.342C112.354 199.291 112.409 200.194 112.505 201.442C112.594 202.607 112.638 203.511 112.638 204.156C112.638 204.297 112.652 204.51 112.68 204.796C112.709 205.082 112.723 205.298 112.723 205.443C112.723 205.716 112.678 205.952 112.59 206.15C112.477 206.415 112.302 206.548 112.064 206.548C111.903 206.548 111.758 206.492 111.629 206.379C111.5 206.266 111.436 206.121 111.436 205.944C111.436 205.884 111.446 205.793 111.466 205.672C111.486 205.551 111.496 205.461 111.496 205.4C111.496 205.203 111.482 204.907 111.454 204.512C111.43 204.117 111.418 203.819 111.418 203.618C111.418 203.042 111.371 202.232 111.279 201.189C111.182 200.061 111.128 199.251 111.115 198.76L110.566 198.766C109.683 198.766 108.991 198.701 108.487 198.572C108.161 198.488 107.998 198.288 107.998 197.974C107.998 197.809 108.05 197.664 108.155 197.539C108.276 197.398 108.431 197.334 108.62 197.346C108.761 197.354 109.083 197.39 109.587 197.454C109.99 197.503 110.316 197.527 110.566 197.527C110.807 197.527 111.174 197.523 111.665 197.515C112.157 197.503 112.523 197.497 112.765 197.497C113.075 197.497 113.534 197.519 114.143 197.563C114.755 197.607 115.216 197.63 115.526 197.63C115.7 197.63 115.845 197.69 115.962 197.811C116.078 197.928 116.137 198.075 116.137 198.252C116.137 198.425 116.078 198.572 115.962 198.693C115.845 198.81 115.7 198.868 115.526 198.868ZM123.261 206.681C122.89 206.681 122.568 206.206 122.294 205.255C122.189 204.893 122.058 204.258 121.901 203.352C121.49 203.408 120.953 203.509 120.288 203.654L118.681 203.986C118.479 204.514 118.135 205.285 117.647 206.301C117.518 206.526 117.343 206.639 117.122 206.639C116.961 206.639 116.816 206.581 116.687 206.464C116.562 206.347 116.499 206.202 116.499 206.029C116.499 205.835 116.803 205.1 117.412 203.823C117.343 203.718 117.309 203.598 117.309 203.461C117.309 203.134 117.506 202.925 117.901 202.832C118.36 201.97 118.94 200.979 119.641 199.859C120.596 198.333 121.19 197.569 121.424 197.569C121.742 197.569 121.96 197.791 122.077 198.234L122.457 200.264L123.358 204.464L123.702 205.418C123.819 205.745 123.877 205.962 123.877 206.071C123.877 206.244 123.815 206.389 123.69 206.506C123.565 206.623 123.422 206.681 123.261 206.681ZM121.128 199.775L119.4 202.56C119.887 202.435 120.626 202.284 121.617 202.107L121.128 199.775ZM130.953 206.252C130.498 206.466 129.783 206.657 128.808 206.826C127.91 206.983 127.176 207.062 126.608 207.062C126.202 207.062 125.909 207 125.732 206.875C125.491 206.705 125.37 206.395 125.37 205.944L125.491 203.944C125.595 202.099 125.648 200.053 125.648 197.805C125.648 197.632 125.704 197.485 125.817 197.364C125.934 197.243 126.077 197.182 126.246 197.182C126.419 197.182 126.562 197.243 126.675 197.364C126.792 197.485 126.85 197.632 126.85 197.805C126.85 200.081 126.796 202.151 126.687 204.017L126.608 204.935C126.576 205.269 126.564 205.565 126.572 205.823C127.624 205.835 128.953 205.588 130.56 205.08C130.629 205.06 130.693 205.05 130.754 205.05C130.927 205.05 131.072 205.118 131.189 205.255C131.289 205.38 131.34 205.523 131.34 205.684C131.34 205.942 131.211 206.131 130.953 206.252ZM142.077 206.566C141.924 206.566 141.781 206.502 141.648 206.373C140.315 205.056 138.832 204.17 137.201 203.714L137.249 204.899L137.279 206.089C137.279 206.266 137.221 206.413 137.104 206.53C136.991 206.651 136.848 206.711 136.675 206.711C136.502 206.711 136.357 206.651 136.24 206.53C136.127 206.413 136.071 206.266 136.071 206.089C136.071 205.771 136.055 205.298 136.023 204.669C135.994 204.037 135.98 203.561 135.98 203.243C135.98 202.872 136.021 202.321 136.101 201.587C136.182 200.854 136.222 200.304 136.222 199.938C136.222 199.732 136.202 199.428 136.162 199.025C136.125 198.623 136.107 198.318 136.107 198.113C136.107 197.883 136.172 197.682 136.301 197.509C136.454 197.295 136.665 197.199 136.935 197.219L138.391 197.334C138.943 197.402 139.408 197.537 139.787 197.738C141.419 198.604 142.234 199.662 142.234 200.911C142.234 201.523 141.956 202.065 141.4 202.536C140.953 202.915 140.395 203.203 139.727 203.4C140.979 204.073 141.916 204.782 142.536 205.527C142.641 205.656 142.693 205.793 142.693 205.938C142.693 206.107 142.631 206.254 142.506 206.379C142.385 206.504 142.242 206.566 142.077 206.566ZM138.228 198.578L137.334 198.506L137.394 199.237C137.422 199.535 137.437 199.779 137.437 199.968C137.437 200.29 137.41 200.691 137.358 201.171L137.231 202.373C137.287 202.373 137.374 202.375 137.491 202.379C137.612 202.383 137.702 202.385 137.763 202.385C138.79 202.385 139.559 202.248 140.071 201.974C140.297 201.849 140.506 201.686 140.699 201.485C140.913 201.259 141.02 201.068 141.02 200.911C141.02 200.351 140.701 199.829 140.065 199.346C139.481 198.903 138.869 198.647 138.228 198.578ZM149.793 198.367C149.737 198.367 149.675 198.357 149.606 198.337C148.925 198.143 148.269 198.047 147.636 198.047C147.306 198.047 146.945 198.077 146.555 198.137C146.164 198.198 145.743 198.29 145.292 198.415C145.328 198.677 145.346 198.886 145.346 199.044C145.346 199.604 145.312 200.373 145.243 201.352L147.89 201.098C148.667 201.017 149.145 200.977 149.322 200.977C149.499 200.977 149.648 201.034 149.769 201.146C149.89 201.259 149.951 201.41 149.951 201.6C149.951 201.966 149.765 202.172 149.395 202.216L147.956 202.343L145.165 202.597C145.149 202.883 145.135 203.154 145.123 203.412C145.115 203.666 145.11 203.904 145.11 204.125C145.11 205.016 145.175 205.539 145.304 205.696C145.401 205.809 145.717 205.866 146.253 205.866C146.502 205.866 146.877 205.859 147.376 205.847C147.88 205.831 148.259 205.823 148.512 205.823C148.593 205.823 148.712 205.811 148.869 205.787C149.026 205.759 149.143 205.745 149.219 205.745C149.646 205.745 149.86 205.954 149.86 206.373C149.86 206.711 149.689 206.915 149.346 206.983C148.968 207.06 148.148 207.098 146.887 207.098C145.638 207.098 144.837 206.933 144.482 206.603C144.095 206.244 143.902 205.418 143.902 204.125C143.902 203.867 143.908 203.586 143.92 203.279C143.932 202.973 143.948 202.643 143.968 202.288C143.924 202.196 143.902 202.097 143.902 201.992C143.902 201.855 143.94 201.732 144.017 201.624C144.097 200.46 144.138 199.599 144.138 199.044C144.138 198.895 144.117 198.677 144.077 198.391C144.037 198.101 144.017 197.881 144.017 197.732C144.017 197.253 144.218 197.013 144.621 197.013C144.79 197.013 144.935 197.072 145.056 197.189C145.539 197.06 145.995 196.963 146.422 196.898C146.853 196.834 147.258 196.802 147.636 196.802C148.615 196.802 149.397 196.919 149.981 197.152C150.251 197.261 150.386 197.454 150.386 197.732C150.386 197.893 150.333 198.036 150.228 198.161C150.112 198.298 149.967 198.367 149.793 198.367ZM151.6 204.995C151.596 204.826 151.652 204.689 151.769 204.585C151.89 204.476 152.037 204.421 152.21 204.421C152.408 204.421 152.581 204.534 152.73 204.76C152.935 205.066 153.119 205.273 153.28 205.382C153.622 205.608 154.12 205.721 154.772 205.721C155.397 205.721 155.977 205.586 156.513 205.316C157.197 204.969 157.54 204.488 157.54 203.872C157.54 203.364 157.252 202.963 156.676 202.669C156.188 202.415 155.586 202.278 154.869 202.258C154.233 202.234 153.691 202.095 153.244 201.841C152.672 201.515 152.386 201.048 152.386 200.439C152.386 199.722 152.792 199.068 153.606 198.476C154.384 197.916 155.187 197.636 156.017 197.636C156.408 197.636 156.849 197.702 157.34 197.835C157.993 198.008 158.319 198.23 158.319 198.5C158.319 198.854 158.138 199.031 157.776 199.031C157.614 199.031 157.332 198.989 156.93 198.905C156.527 198.816 156.215 198.774 155.993 198.778C155.365 198.786 154.831 198.941 154.392 199.243C153.941 199.553 153.715 199.93 153.715 200.373C153.715 200.707 154.013 200.943 154.609 201.08C154.831 201.132 155.26 201.181 155.896 201.225C156.819 201.293 157.54 201.583 158.06 202.095C158.535 202.562 158.773 203.132 158.773 203.805C158.773 204.764 158.329 205.529 157.443 206.101C156.674 206.597 155.781 206.844 154.766 206.844C154.029 206.844 153.354 206.703 152.742 206.421C151.993 206.075 151.612 205.6 151.6 204.995ZM166.108 198.367C166.052 198.367 165.989 198.357 165.921 198.337C165.24 198.143 164.583 198.047 163.951 198.047C163.621 198.047 163.26 198.077 162.869 198.137C162.479 198.198 162.058 198.29 161.606 198.415C161.643 198.677 161.661 198.886 161.661 199.044C161.661 199.604 161.627 200.373 161.558 201.352L164.205 201.098C164.982 201.017 165.46 200.977 165.637 200.977C165.814 200.977 165.963 201.034 166.084 201.146C166.205 201.259 166.265 201.41 166.265 201.6C166.265 201.966 166.08 202.172 165.709 202.216L164.271 202.343L161.48 202.597C161.463 202.883 161.449 203.154 161.437 203.412C161.429 203.666 161.425 203.904 161.425 204.125C161.425 205.016 161.49 205.539 161.619 205.696C161.715 205.809 162.031 205.866 162.567 205.866C162.817 205.866 163.192 205.859 163.691 205.847C164.195 205.831 164.573 205.823 164.827 205.823C164.908 205.823 165.026 205.811 165.184 205.787C165.341 205.759 165.458 205.745 165.534 205.745C165.961 205.745 166.175 205.954 166.175 206.373C166.175 206.711 166.003 206.915 165.661 206.983C165.282 207.06 164.463 207.098 163.202 207.098C161.953 207.098 161.151 206.933 160.797 206.603C160.41 206.244 160.217 205.418 160.217 204.125C160.217 203.867 160.223 203.586 160.235 203.279C160.247 202.973 160.263 202.643 160.283 202.288C160.239 202.196 160.217 202.097 160.217 201.992C160.217 201.855 160.255 201.732 160.331 201.624C160.412 200.46 160.452 199.599 160.452 199.044C160.452 198.895 160.432 198.677 160.392 198.391C160.352 198.101 160.331 197.881 160.331 197.732C160.331 197.253 160.533 197.013 160.936 197.013C161.105 197.013 161.25 197.072 161.371 197.189C161.854 197.06 162.309 196.963 162.736 196.898C163.167 196.834 163.572 196.802 163.951 196.802C164.93 196.802 165.711 196.919 166.295 197.152C166.565 197.261 166.7 197.454 166.7 197.732C166.7 197.893 166.648 198.036 166.543 198.161C166.426 198.298 166.281 198.367 166.108 198.367ZM173.909 206.566C173.756 206.566 173.613 206.502 173.48 206.373C172.147 205.056 170.664 204.17 169.033 203.714L169.081 204.899L169.111 206.089C169.111 206.266 169.053 206.413 168.936 206.53C168.823 206.651 168.68 206.711 168.507 206.711C168.334 206.711 168.189 206.651 168.072 206.53C167.959 206.413 167.903 206.266 167.903 206.089C167.903 205.771 167.887 205.298 167.854 204.669C167.826 204.037 167.812 203.561 167.812 203.243C167.812 202.872 167.852 202.321 167.933 201.587C168.013 200.854 168.054 200.304 168.054 199.938C168.054 199.732 168.034 199.428 167.993 199.025C167.957 198.623 167.939 198.318 167.939 198.113C167.939 197.883 168.003 197.682 168.132 197.509C168.285 197.295 168.497 197.199 168.767 197.219L170.223 197.334C170.775 197.402 171.24 197.537 171.619 197.738C173.25 198.604 174.066 199.662 174.066 200.911C174.066 201.523 173.788 202.065 173.232 202.536C172.785 202.915 172.227 203.203 171.558 203.4C172.811 204.073 173.748 204.782 174.368 205.527C174.473 205.656 174.525 205.793 174.525 205.938C174.525 206.107 174.463 206.254 174.338 206.379C174.217 206.504 174.074 206.566 173.909 206.566ZM170.06 198.578L169.166 198.506L169.226 199.237C169.254 199.535 169.268 199.779 169.268 199.968C169.268 200.29 169.242 200.691 169.19 201.171L169.063 202.373C169.119 202.373 169.206 202.375 169.323 202.379C169.444 202.383 169.534 202.385 169.595 202.385C170.622 202.385 171.391 202.248 171.903 201.974C172.128 201.849 172.338 201.686 172.531 201.485C172.745 201.259 172.852 201.068 172.852 200.911C172.852 200.351 172.533 199.829 171.897 199.346C171.313 198.903 170.7 198.647 170.06 198.578ZM182.779 198.216C182.53 198.59 182.326 198.983 182.169 199.394L181.71 200.717L180.084 205.11C179.895 205.626 179.673 206.129 179.42 206.621C179.291 206.863 179.109 206.983 178.876 206.983C178.566 206.983 178.348 206.826 178.223 206.512C177.736 205.287 177.194 203.525 176.598 201.225L176.12 199.563C175.883 198.725 175.764 198.177 175.764 197.92C175.764 197.738 175.828 197.589 175.957 197.473C176.074 197.364 176.215 197.309 176.38 197.309C176.686 197.309 176.884 197.475 176.972 197.805L177.196 198.856L177.776 200.911C178.163 202.409 178.539 203.7 178.906 204.784L178.942 204.687L180.562 200.3L181.075 198.82C181.305 198.224 181.549 197.773 181.806 197.466C181.939 197.305 182.096 197.225 182.278 197.225C182.439 197.225 182.582 197.287 182.707 197.412C182.836 197.533 182.9 197.68 182.9 197.853C182.9 197.974 182.86 198.095 182.779 198.216ZM189.674 198.367C189.617 198.367 189.555 198.357 189.486 198.337C188.806 198.143 188.149 198.047 187.517 198.047C187.186 198.047 186.826 198.077 186.435 198.137C186.044 198.198 185.623 198.29 185.172 198.415C185.208 198.677 185.227 198.886 185.227 199.044C185.227 199.604 185.192 200.373 185.124 201.352L187.77 201.098C188.548 201.017 189.025 200.977 189.202 200.977C189.38 200.977 189.529 201.034 189.65 201.146C189.77 201.259 189.831 201.41 189.831 201.6C189.831 201.966 189.646 202.172 189.275 202.216L187.837 202.343L185.045 202.597C185.029 202.883 185.015 203.154 185.003 203.412C184.995 203.666 184.991 203.904 184.991 204.125C184.991 205.016 185.055 205.539 185.184 205.696C185.281 205.809 185.597 205.866 186.133 205.866C186.383 205.866 186.757 205.859 187.257 205.847C187.76 205.831 188.139 205.823 188.393 205.823C188.473 205.823 188.592 205.811 188.749 205.787C188.906 205.759 189.023 205.745 189.1 205.745C189.527 205.745 189.74 205.954 189.74 206.373C189.74 206.711 189.569 206.915 189.227 206.983C188.848 207.06 188.028 207.098 186.767 207.098C185.519 207.098 184.717 206.933 184.362 206.603C183.976 206.244 183.782 205.418 183.782 204.125C183.782 203.867 183.788 203.586 183.8 203.279C183.813 202.973 183.829 202.643 183.849 202.288C183.805 202.196 183.782 202.097 183.782 201.992C183.782 201.855 183.821 201.732 183.897 201.624C183.978 200.46 184.018 199.599 184.018 199.044C184.018 198.895 183.998 198.677 183.958 198.391C183.917 198.101 183.897 197.881 183.897 197.732C183.897 197.253 184.099 197.013 184.501 197.013C184.671 197.013 184.816 197.072 184.936 197.189C185.42 197.06 185.875 196.963 186.302 196.898C186.733 196.834 187.138 196.802 187.517 196.802C188.495 196.802 189.277 196.919 189.861 197.152C190.131 197.261 190.266 197.454 190.266 197.732C190.266 197.893 190.214 198.036 190.109 198.161C189.992 198.298 189.847 198.367 189.674 198.367ZM191.48 204.995C191.476 204.826 191.533 204.689 191.65 204.585C191.771 204.476 191.918 204.421 192.091 204.421C192.288 204.421 192.461 204.534 192.61 204.76C192.816 205.066 192.999 205.273 193.16 205.382C193.503 205.608 194 205.721 194.653 205.721C195.277 205.721 195.857 205.586 196.393 205.316C197.078 204.969 197.42 204.488 197.42 203.872C197.42 203.364 197.132 202.963 196.556 202.669C196.069 202.415 195.466 202.278 194.749 202.258C194.113 202.234 193.571 202.095 193.124 201.841C192.552 201.515 192.266 201.048 192.266 200.439C192.266 199.722 192.673 199.068 193.487 198.476C194.264 197.916 195.068 197.636 195.898 197.636C196.288 197.636 196.729 197.702 197.221 197.835C197.873 198.008 198.2 198.23 198.2 198.5C198.2 198.854 198.018 199.031 197.656 199.031C197.495 199.031 197.213 198.989 196.81 198.905C196.407 198.816 196.095 198.774 195.873 198.778C195.245 198.786 194.711 198.941 194.272 199.243C193.821 199.553 193.595 199.93 193.595 200.373C193.595 200.707 193.893 200.943 194.49 201.08C194.711 201.132 195.14 201.181 195.777 201.225C196.699 201.293 197.42 201.583 197.94 202.095C198.415 202.562 198.653 203.132 198.653 203.805C198.653 204.764 198.21 205.529 197.324 206.101C196.554 206.597 195.662 206.844 194.647 206.844C193.91 206.844 193.235 206.703 192.622 206.421C191.873 206.075 191.493 205.6 191.48 204.995Z" fill="black"/>
<path d="M339.438 206.5V205.693L342.468 202.375C342.824 201.987 343.117 201.649 343.347 201.362C343.577 201.072 343.748 200.8 343.858 200.546C343.972 200.289 344.029 200.02 344.029 199.739C344.029 199.416 343.951 199.137 343.795 198.901C343.643 198.665 343.434 198.482 343.168 198.354C342.902 198.225 342.603 198.161 342.271 198.161C341.918 198.161 341.611 198.234 341.348 198.381C341.088 198.524 340.886 198.726 340.742 198.986C340.602 199.246 340.532 199.551 340.532 199.901H339.474C339.474 199.363 339.598 198.89 339.846 198.484C340.094 198.077 340.431 197.761 340.859 197.533C341.289 197.306 341.772 197.193 342.307 197.193C342.845 197.193 343.322 197.306 343.737 197.533C344.153 197.761 344.478 198.067 344.714 198.452C344.951 198.838 345.069 199.267 345.069 199.739C345.069 200.077 345.007 200.407 344.885 200.73C344.765 201.05 344.556 201.407 344.257 201.801C343.961 202.193 343.55 202.671 343.024 203.236L340.962 205.442V205.514H345.23V206.5H339.438ZM350.023 206.626C349.407 206.626 348.863 206.516 348.391 206.298C347.922 206.077 347.555 205.774 347.292 205.388C347.029 205 346.899 204.557 346.902 204.061C346.899 203.673 346.976 203.314 347.131 202.985C347.286 202.653 347.499 202.377 347.768 202.156C348.04 201.932 348.343 201.79 348.678 201.73V201.676C348.238 201.562 347.889 201.316 347.629 200.936C347.369 200.554 347.24 200.119 347.243 199.632C347.24 199.165 347.358 198.748 347.597 198.381C347.836 198.013 348.165 197.723 348.584 197.511C349.005 197.299 349.485 197.193 350.023 197.193C350.555 197.193 351.03 197.299 351.448 197.511C351.867 197.723 352.196 198.013 352.435 198.381C352.677 198.748 352.799 199.165 352.802 199.632C352.799 200.119 352.666 200.554 352.403 200.936C352.143 201.316 351.798 201.562 351.368 201.676V201.73C351.699 201.79 351.998 201.932 352.264 202.156C352.53 202.377 352.743 202.653 352.901 202.985C353.059 203.314 353.14 203.673 353.143 204.061C353.14 204.557 353.006 205 352.74 205.388C352.477 205.774 352.11 206.077 351.641 206.298C351.175 206.516 350.635 206.626 350.023 206.626ZM350.023 205.639C350.438 205.639 350.797 205.572 351.099 205.437C351.401 205.303 351.634 205.113 351.798 204.868C351.963 204.623 352.046 204.336 352.049 204.007C352.046 203.661 351.957 203.354 351.78 203.088C351.604 202.822 351.363 202.613 351.058 202.461C350.757 202.308 350.411 202.232 350.023 202.232C349.631 202.232 349.281 202.308 348.974 202.461C348.669 202.613 348.428 202.822 348.252 203.088C348.078 203.354 347.993 203.661 347.996 204.007C347.993 204.336 348.072 204.623 348.234 204.868C348.398 205.113 348.633 205.303 348.938 205.437C349.243 205.572 349.604 205.639 350.023 205.639ZM350.023 201.281C350.352 201.281 350.643 201.216 350.897 201.084C351.154 200.953 351.356 200.769 351.502 200.533C351.649 200.297 351.723 200.02 351.726 199.703C351.723 199.392 351.65 199.122 351.507 198.892C351.363 198.659 351.164 198.479 350.91 198.354C350.656 198.225 350.36 198.161 350.023 198.161C349.679 198.161 349.379 198.225 349.122 198.354C348.865 198.479 348.666 198.659 348.525 198.892C348.385 199.122 348.316 199.392 348.319 199.703C348.316 200.02 348.386 200.297 348.53 200.533C348.676 200.769 348.878 200.953 349.135 201.084C349.392 201.216 349.688 201.281 350.023 201.281ZM354.861 206.5V205.693L357.892 202.375C358.248 201.987 358.541 201.649 358.771 201.362C359.001 201.072 359.171 200.8 359.282 200.546C359.395 200.289 359.452 200.02 359.452 199.739C359.452 199.416 359.375 199.137 359.219 198.901C359.067 198.665 358.857 198.482 358.591 198.354C358.325 198.225 358.027 198.161 357.695 198.161C357.342 198.161 357.034 198.234 356.771 198.381C356.511 198.524 356.309 198.726 356.166 198.986C356.026 199.246 355.955 199.551 355.955 199.901H354.897C354.897 199.363 355.021 198.89 355.269 198.484C355.517 198.077 355.855 197.761 356.283 197.533C356.713 197.306 357.196 197.193 357.731 197.193C358.269 197.193 358.745 197.306 359.161 197.533C359.576 197.761 359.902 198.067 360.138 198.452C360.374 198.838 360.492 199.267 360.492 199.739C360.492 200.077 360.431 200.407 360.309 200.73C360.189 201.05 359.98 201.407 359.681 201.801C359.385 202.193 358.974 202.671 358.448 203.236L356.386 205.442V205.514H360.654V206.5H354.861ZM363.294 206.572C363.073 206.572 362.883 206.493 362.725 206.334C362.567 206.176 362.487 205.986 362.487 205.765C362.487 205.544 362.567 205.354 362.725 205.195C362.883 205.037 363.073 204.958 363.294 204.958C363.516 204.958 363.705 205.037 363.864 205.195C364.022 205.354 364.101 205.544 364.101 205.765C364.101 205.911 364.064 206.046 363.989 206.168C363.918 206.291 363.82 206.389 363.698 206.464C363.578 206.536 363.444 206.572 363.294 206.572ZM368.71 206.626C368.334 206.62 367.957 206.548 367.58 206.41C367.204 206.273 366.86 206.041 366.549 205.715C366.238 205.387 365.989 204.943 365.801 204.384C365.612 203.822 365.518 203.117 365.518 202.268C365.518 201.455 365.594 200.734 365.747 200.107C365.899 199.476 366.12 198.946 366.41 198.515C366.7 198.082 367.05 197.753 367.459 197.529C367.872 197.305 368.337 197.193 368.854 197.193C369.368 197.193 369.825 197.296 370.226 197.502C370.629 197.705 370.958 197.989 371.212 198.354C371.466 198.718 371.63 199.138 371.705 199.614H370.611C370.51 199.201 370.312 198.859 370.019 198.587C369.727 198.315 369.338 198.179 368.854 198.179C368.142 198.179 367.582 198.488 367.173 199.107C366.766 199.726 366.561 200.594 366.558 201.712H366.63C366.797 201.458 366.996 201.241 367.226 201.062C367.459 200.879 367.716 200.739 367.997 200.64C368.278 200.542 368.576 200.492 368.89 200.492C369.416 200.492 369.897 200.624 370.333 200.887C370.77 201.147 371.119 201.507 371.382 201.967C371.645 202.425 371.777 202.949 371.777 203.541C371.777 204.109 371.65 204.629 371.396 205.101C371.142 205.57 370.785 205.944 370.324 206.222C369.867 206.497 369.329 206.632 368.71 206.626ZM368.71 205.639C369.087 205.639 369.425 205.545 369.724 205.357C370.025 205.168 370.263 204.916 370.436 204.599C370.613 204.282 370.701 203.93 370.701 203.541C370.701 203.161 370.616 202.816 370.445 202.505C370.278 202.192 370.046 201.942 369.75 201.757C369.458 201.571 369.123 201.479 368.746 201.479C368.462 201.479 368.198 201.535 367.953 201.649C367.708 201.76 367.492 201.912 367.307 202.106C367.125 202.301 366.981 202.523 366.877 202.774C366.772 203.022 366.72 203.284 366.72 203.559C366.72 203.924 366.805 204.264 366.975 204.581C367.149 204.898 367.385 205.154 367.684 205.348C367.985 205.542 368.328 205.639 368.71 205.639ZM376.768 197.318V206.5H375.656V198.484H375.602L373.361 199.972V198.843L375.656 197.318H376.768ZM383.121 206.5V197.318H388.662V198.305H384.233V201.407H388.375V202.393H384.233V205.514H388.734V206.5H383.121ZM390.164 198.305V197.318H397.05V198.305H394.163V206.5H393.051V198.305H390.164ZM398.766 206.5V197.318H399.878V201.407H404.774V197.318H405.886V206.5H404.774V202.393H399.878V206.5H398.766Z" fill="black"/>
<path d="M329.389 221.5V230.5H328.299V222.643H328.247L326.049 224.102V222.994L328.299 221.5H329.389ZM332.219 230.57C332.003 230.57 331.817 230.493 331.661 230.337C331.506 230.182 331.428 229.996 331.428 229.779C331.428 229.562 331.506 229.376 331.661 229.221C331.817 229.066 332.003 228.988 332.219 228.988C332.436 228.988 332.622 229.066 332.777 229.221C332.933 229.376 333.01 229.562 333.01 229.779C333.01 229.923 332.974 230.055 332.901 230.175C332.83 230.295 332.735 230.392 332.615 230.465C332.498 230.535 332.366 230.57 332.219 230.57ZM337.485 230.623C336.969 230.623 336.505 230.521 336.092 230.315C335.679 230.11 335.348 229.829 335.099 229.472C334.85 229.114 334.714 228.707 334.69 228.25H335.745C335.786 228.657 335.97 228.994 336.299 229.261C336.63 229.524 337.025 229.656 337.485 229.656C337.854 229.656 338.182 229.57 338.469 229.397C338.76 229.224 338.987 228.987 339.151 228.685C339.318 228.38 339.401 228.036 339.401 227.652C339.401 227.26 339.315 226.91 339.142 226.602C338.972 226.292 338.738 226.047 338.439 225.868C338.14 225.689 337.799 225.599 337.415 225.596C337.139 225.593 336.857 225.635 336.567 225.723C336.277 225.808 336.038 225.918 335.85 226.053L334.831 225.93L335.376 221.5H340.052V222.467H336.29L335.973 225.121H336.026C336.211 224.975 336.442 224.853 336.72 224.756C336.999 224.66 337.289 224.611 337.591 224.611C338.141 224.611 338.632 224.743 339.063 225.007C339.496 225.268 339.836 225.625 340.082 226.079C340.331 226.533 340.456 227.052 340.456 227.635C340.456 228.209 340.327 228.722 340.069 229.173C339.814 229.621 339.463 229.976 339.014 230.236C338.566 230.494 338.056 230.623 337.485 230.623ZM342.202 230.5V229.709L345.172 226.457C345.521 226.076 345.808 225.745 346.034 225.464C346.259 225.18 346.426 224.913 346.535 224.664C346.646 224.412 346.702 224.148 346.702 223.873C346.702 223.557 346.625 223.283 346.473 223.051C346.324 222.82 346.119 222.641 345.858 222.515C345.597 222.389 345.304 222.326 344.979 222.326C344.633 222.326 344.331 222.398 344.074 222.542C343.819 222.682 343.621 222.88 343.48 223.135C343.343 223.39 343.274 223.688 343.274 224.031H342.237C342.237 223.504 342.358 223.041 342.601 222.643C342.845 222.244 343.176 221.934 343.595 221.711C344.016 221.488 344.49 221.377 345.014 221.377C345.541 221.377 346.009 221.488 346.416 221.711C346.823 221.934 347.142 222.234 347.374 222.612C347.605 222.99 347.721 223.41 347.721 223.873C347.721 224.204 347.661 224.528 347.541 224.844C347.424 225.158 347.219 225.508 346.926 225.895C346.636 226.278 346.233 226.747 345.717 227.301L343.696 229.463V229.533H347.879V230.5H342.202ZM352.682 230.623C352.313 230.617 351.944 230.547 351.575 230.412C351.206 230.277 350.869 230.05 350.564 229.731C350.26 229.409 350.015 228.974 349.83 228.426C349.646 227.875 349.554 227.184 349.554 226.352C349.554 225.555 349.628 224.849 349.778 224.233C349.927 223.615 350.144 223.095 350.428 222.673C350.712 222.249 351.055 221.926 351.456 221.707C351.861 221.487 352.316 221.377 352.823 221.377C353.327 221.377 353.775 221.478 354.168 221.68C354.563 221.879 354.886 222.158 355.135 222.515C355.384 222.873 355.545 223.284 355.618 223.75H354.546C354.446 223.346 354.253 223.01 353.966 222.744C353.679 222.477 353.298 222.344 352.823 222.344C352.126 222.344 351.577 222.647 351.175 223.253C350.777 223.86 350.576 224.711 350.573 225.807H350.643C350.807 225.558 351.002 225.345 351.228 225.169C351.456 224.991 351.708 224.853 351.984 224.756C352.259 224.66 352.551 224.611 352.858 224.611C353.374 224.611 353.846 224.74 354.273 224.998C354.701 225.253 355.044 225.606 355.302 226.057C355.559 226.505 355.688 227.02 355.688 227.6C355.688 228.156 355.564 228.666 355.315 229.129C355.066 229.589 354.716 229.955 354.265 230.228C353.816 230.497 353.289 230.629 352.682 230.623ZM352.682 229.656C353.052 229.656 353.383 229.564 353.676 229.379C353.972 229.195 354.204 228.947 354.374 228.637C354.547 228.326 354.634 227.98 354.634 227.6C354.634 227.228 354.55 226.889 354.383 226.584C354.219 226.277 353.992 226.032 353.702 225.851C353.415 225.669 353.087 225.578 352.718 225.578C352.439 225.578 352.18 225.634 351.94 225.745C351.7 225.854 351.489 226.003 351.307 226.193C351.128 226.384 350.988 226.602 350.885 226.848C350.783 227.091 350.731 227.348 350.731 227.617C350.731 227.975 350.815 228.309 350.982 228.619C351.152 228.93 351.383 229.18 351.676 229.371C351.972 229.561 352.307 229.656 352.682 229.656ZM361.055 230.5V221.5H364.096C364.802 221.5 365.379 221.627 365.828 221.882C366.279 222.134 366.613 222.476 366.83 222.906C367.046 223.337 367.155 223.817 367.155 224.348C367.155 224.878 367.046 225.36 366.83 225.793C366.616 226.227 366.285 226.573 365.836 226.831C365.388 227.085 364.814 227.213 364.114 227.213H361.934V226.246H364.079C364.562 226.246 364.95 226.163 365.243 225.996C365.536 225.829 365.749 225.603 365.88 225.319C366.015 225.032 366.083 224.708 366.083 224.348C366.083 223.987 366.015 223.665 365.88 223.381C365.749 223.097 365.535 222.874 365.239 222.713C364.943 222.549 364.55 222.467 364.061 222.467H362.145V230.5H361.055ZM376.504 226C376.504 226.949 376.333 227.77 375.99 228.461C375.647 229.152 375.177 229.686 374.579 230.061C373.982 230.436 373.299 230.623 372.531 230.623C371.764 230.623 371.081 230.436 370.484 230.061C369.886 229.686 369.416 229.152 369.073 228.461C368.73 227.77 368.559 226.949 368.559 226C368.559 225.051 368.73 224.23 369.073 223.539C369.416 222.848 369.886 222.314 370.484 221.939C371.081 221.564 371.764 221.377 372.531 221.377C373.299 221.377 373.982 221.564 374.579 221.939C375.177 222.314 375.647 222.848 375.99 223.539C376.333 224.23 376.504 225.051 376.504 226ZM375.449 226C375.449 225.221 375.319 224.563 375.058 224.027C374.801 223.491 374.45 223.085 374.008 222.81C373.569 222.534 373.076 222.396 372.531 222.396C371.987 222.396 371.493 222.534 371.051 222.81C370.611 223.085 370.261 223.491 370 224.027C369.742 224.563 369.614 225.221 369.614 226C369.614 226.779 369.742 227.437 370 227.973C370.261 228.509 370.611 228.915 371.051 229.19C371.493 229.466 371.987 229.604 372.531 229.604C373.076 229.604 373.569 229.466 374.008 229.19C374.45 228.915 374.801 228.509 375.058 227.973C375.319 227.437 375.449 226.779 375.449 226ZM385.473 221.5V230.5H384.419L379.514 223.434H379.427V230.5H378.337V221.5H379.391L384.313 228.584H384.401V221.5H385.473ZM387.355 230.5V229.709L392.207 222.467H387.303V221.5H393.508V222.291L388.656 229.533H393.56V230.5H387.355ZM396.478 221.5V230.5H395.389V221.5H396.478ZM406.257 226C406.257 226.949 406.086 227.77 405.743 228.461C405.4 229.152 404.93 229.686 404.333 230.061C403.735 230.436 403.052 230.623 402.285 230.623C401.517 230.623 400.834 230.436 400.237 230.061C399.639 229.686 399.169 229.152 398.826 228.461C398.483 227.77 398.312 226.949 398.312 226C398.312 225.051 398.483 224.23 398.826 223.539C399.169 222.848 399.639 222.314 400.237 221.939C400.834 221.564 401.517 221.377 402.285 221.377C403.052 221.377 403.735 221.564 404.333 221.939C404.93 222.314 405.4 222.848 405.743 223.539C406.086 224.23 406.257 225.051 406.257 226ZM405.203 226C405.203 225.221 405.072 224.563 404.812 224.027C404.554 223.491 404.204 223.085 403.761 222.81C403.322 222.534 402.83 222.396 402.285 222.396C401.74 222.396 401.246 222.534 400.804 222.81C400.364 223.085 400.014 223.491 399.753 224.027C399.496 224.563 399.367 225.221 399.367 226C399.367 226.779 399.496 227.437 399.753 227.973C400.014 228.509 400.364 228.915 400.804 229.19C401.246 229.466 401.74 229.604 402.285 229.604C402.83 229.604 403.322 229.466 403.761 229.19C404.204 228.915 404.554 228.509 404.812 227.973C405.072 227.437 405.203 226.779 405.203 226Z" fill="black"/>
<g filter="url(#filter2_d_1_9)">
<path d="M89 269C89 264.582 92.5817 261 97 261H399C403.418 261 407 264.582 407 269V299C407 303.418 403.418 307 399 307H97C92.5817 307 89 303.418 89 299V269Z" fill="black"/>
<path d="M197.427 281.841C197.079 281.841 196.818 281.637 196.644 281.228C196.491 280.88 196.35 280.668 196.219 280.592C196.105 280.532 195.822 280.502 195.37 280.502C194.581 280.502 193.705 281.106 192.742 282.314C191.435 283.936 190.782 285.473 190.782 286.926C190.782 287.628 191.008 288.233 191.46 288.739C191.923 289.261 192.48 289.522 193.133 289.522C193.694 289.522 194.257 289.378 194.823 289.09C195.139 288.926 195.623 288.605 196.276 288.126C196.587 287.898 196.821 287.784 196.978 287.784C197.212 287.784 197.408 287.873 197.566 288.053C197.724 288.227 197.803 288.423 197.803 288.641C197.803 288.886 197.7 289.101 197.493 289.286C196.056 290.559 194.603 291.196 193.133 291.196C192.007 291.196 191.054 290.763 190.276 289.898C189.525 289.06 189.15 288.069 189.15 286.926C189.15 285.081 189.922 283.19 191.468 281.253C192.758 279.636 194.059 278.828 195.37 278.828C195.637 278.828 195.876 278.842 196.089 278.869C196.301 278.891 196.489 278.929 196.652 278.983C196.842 278.706 197.09 278.567 197.395 278.567C197.77 278.567 198.007 278.815 198.105 279.31C198.192 279.751 198.236 280.292 198.236 280.934C198.236 281.158 198.176 281.354 198.056 281.522C197.909 281.734 197.7 281.841 197.427 281.841ZM202.685 291.482C201.77 291.482 200.984 291.144 200.325 290.469C199.591 289.718 199.204 288.709 199.166 287.441C199.134 286.211 199.444 285.128 200.097 284.192C200.859 283.087 201.92 282.535 203.281 282.535C204.369 282.535 205.194 283.032 205.754 284.028C206.2 284.834 206.415 285.803 206.399 286.935C206.383 288.143 206.067 289.174 205.452 290.029C204.755 290.997 203.833 291.482 202.685 291.482ZM203.174 284.192C202.374 284.186 201.751 284.567 201.305 285.335C200.951 285.95 200.774 286.652 200.774 287.441C200.774 288.23 200.989 288.845 201.419 289.286C201.779 289.65 202.2 289.833 202.685 289.833C203.251 289.833 203.738 289.626 204.146 289.212C204.609 288.755 204.853 288.137 204.881 287.359C204.957 285.253 204.388 284.197 203.174 284.192ZM214.685 291.58C214.217 291.58 213.953 291.324 213.893 290.812L213.665 289.024C213.588 288.388 213.55 287.792 213.55 287.237C213.55 287.084 213.558 286.826 213.575 286.461C213.596 286.096 213.607 285.838 213.607 285.686C213.607 284.51 213.39 283.922 212.954 283.922C212.345 283.922 211.762 284.284 211.207 285.008C210.707 285.667 210.315 286.499 210.032 287.506C210.021 287.718 209.996 287.985 209.958 288.306C209.926 288.578 209.909 288.842 209.909 289.098C209.909 289.261 209.926 289.506 209.958 289.833C209.991 290.159 210.007 290.404 210.007 290.567C210.007 290.812 209.931 291.011 209.779 291.163C209.632 291.316 209.441 291.392 209.207 291.392C208.968 291.392 208.775 291.316 208.628 291.163C208.481 291.011 208.407 290.812 208.407 290.567C208.407 290.404 208.388 290.159 208.35 289.833C208.317 289.506 208.301 289.261 208.301 289.098C208.301 288.537 208.339 287.762 208.415 286.771C208.497 285.775 208.538 284.997 208.538 284.437C208.538 284.262 208.527 284.004 208.505 283.661C208.489 283.318 208.481 283.06 208.481 282.886C208.481 282.652 208.557 282.461 208.709 282.314C208.867 282.162 209.06 282.086 209.289 282.086C209.79 282.086 210.064 282.439 210.113 283.147L210.138 284.102C211.052 282.883 211.991 282.273 212.954 282.273C213.825 282.273 214.432 282.657 214.775 283.424C215.009 283.936 215.137 284.692 215.158 285.694V286.518L215.15 287.277C215.15 287.729 215.207 288.314 215.322 289.033C215.441 289.746 215.501 290.325 215.501 290.771C215.501 291.011 215.422 291.204 215.265 291.351C215.112 291.503 214.919 291.58 214.685 291.58ZM223.436 291.58C222.968 291.58 222.704 291.324 222.644 290.812L222.416 289.024C222.34 288.388 222.301 287.792 222.301 287.237C222.301 287.084 222.31 286.826 222.326 286.461C222.348 286.096 222.359 285.838 222.359 285.686C222.359 284.51 222.141 283.922 221.706 283.922C221.096 283.922 220.514 284.284 219.959 285.008C219.458 285.667 219.066 286.499 218.783 287.506C218.772 287.718 218.748 287.985 218.71 288.306C218.677 288.578 218.661 288.842 218.661 289.098C218.661 289.261 218.677 289.506 218.71 289.833C218.742 290.159 218.759 290.404 218.759 290.567C218.759 290.812 218.682 291.011 218.53 291.163C218.383 291.316 218.193 291.392 217.958 291.392C217.719 291.392 217.526 291.316 217.379 291.163C217.232 291.011 217.158 290.812 217.158 290.567C217.158 290.404 217.139 290.159 217.101 289.833C217.069 289.506 217.052 289.261 217.052 289.098C217.052 288.537 217.09 287.762 217.167 286.771C217.248 285.775 217.289 284.997 217.289 284.437C217.289 284.262 217.278 284.004 217.256 283.661C217.24 283.318 217.232 283.06 217.232 282.886C217.232 282.652 217.308 282.461 217.461 282.314C217.618 282.162 217.812 282.086 218.04 282.086C218.541 282.086 218.816 282.439 218.865 283.147L218.889 284.102C219.803 282.883 220.742 282.273 221.706 282.273C222.576 282.273 223.183 282.657 223.526 283.424C223.76 283.936 223.888 284.692 223.91 285.694V286.518L223.901 287.277C223.901 287.729 223.959 288.314 224.073 289.033C224.193 289.746 224.253 290.325 224.253 290.771C224.253 291.011 224.174 291.204 224.016 291.351C223.863 291.503 223.67 291.58 223.436 291.58ZM229.738 291.376C228.508 291.376 227.512 291.068 226.751 290.453C225.918 289.773 225.502 288.82 225.502 287.596C225.502 286.181 225.844 284.994 226.53 284.037C227.276 282.992 228.272 282.469 229.518 282.469C230.421 282.469 231.159 282.622 231.73 282.926C232.432 283.302 232.783 283.879 232.783 284.657C232.783 285.201 232.476 285.696 231.861 286.143C231.589 286.339 231.012 286.643 230.13 287.057L227.012 288.535C227.317 288.986 227.695 289.326 228.146 289.555C228.604 289.784 229.134 289.898 229.738 289.898C230.114 289.898 230.555 289.827 231.061 289.686C231.703 289.506 232.117 289.272 232.302 288.984C232.487 288.69 232.685 288.543 232.898 288.543C233.088 288.543 233.257 288.616 233.404 288.763C233.556 288.905 233.632 289.071 233.632 289.261C233.632 289.865 233.145 290.385 232.171 290.82C231.338 291.19 230.527 291.376 229.738 291.376ZM229.518 283.939C228.854 283.939 228.302 284.197 227.861 284.714C227.42 285.226 227.091 285.999 226.873 287.033L229.379 285.841C230.364 285.362 231.066 284.945 231.485 284.592C231.017 284.156 230.362 283.939 229.518 283.939ZM238.775 291.514C237.66 291.514 236.729 291.177 235.983 290.502C235.2 289.795 234.808 288.861 234.808 287.702C234.808 286.597 235.175 285.457 235.91 284.281C236.726 282.975 237.646 282.322 238.669 282.322C239.203 282.322 239.798 282.447 240.457 282.698C241.29 283.019 241.706 283.411 241.706 283.873C241.706 284.08 241.638 284.265 241.502 284.428C241.366 284.586 241.197 284.665 240.996 284.665C240.838 284.665 240.699 284.619 240.579 284.526C240.465 284.428 240.354 284.333 240.245 284.241C239.924 283.985 239.398 283.857 238.669 283.857C238.114 283.857 237.564 284.352 237.02 285.343C236.525 286.252 236.277 287.038 236.277 287.702C236.277 288.42 236.522 288.986 237.012 289.4C237.469 289.786 238.057 289.98 238.775 289.98C239.102 289.98 239.45 289.892 239.82 289.718L240.767 289.212C240.93 289.125 241.047 289.082 241.118 289.082C241.32 289.082 241.494 289.163 241.641 289.326C241.788 289.484 241.861 289.667 241.861 289.873C241.861 290.271 241.442 290.654 240.604 291.024C239.869 291.351 239.26 291.514 238.775 291.514ZM249.135 284.045C249.02 284.045 248.884 284.039 248.727 284.028C248.574 284.018 248.441 284.012 248.327 284.012C248.201 284.012 247.831 284.053 247.216 284.135L247.371 288.959L247.38 289.318L247.388 289.735C247.41 290.927 247.124 291.522 246.531 291.522C246.313 291.522 246.122 291.452 245.959 291.31C245.801 291.169 245.722 290.992 245.722 290.78C245.722 290.573 245.731 290.263 245.747 289.849C245.763 289.435 245.771 289.125 245.771 288.918L245.608 284.151C245.211 284.135 244.607 284.088 243.796 284.012C243.311 283.947 243.069 283.677 243.069 283.204C243.069 282.964 243.143 282.766 243.29 282.608C243.437 282.45 243.624 282.371 243.853 282.371L245.567 282.51C245.567 282.232 245.554 281.862 245.526 281.4C245.505 280.932 245.494 280.594 245.494 280.388C245.494 280.159 245.573 279.971 245.731 279.824C245.888 279.672 246.082 279.596 246.31 279.596C246.8 279.596 247.086 279.996 247.167 280.796C247.184 280.997 247.192 281.239 247.192 281.522L247.175 281.996L247.167 282.502C247.842 282.415 248.229 282.371 248.327 282.371C248.893 282.371 249.263 282.398 249.437 282.453C249.769 282.562 249.935 282.817 249.935 283.22C249.935 283.46 249.859 283.658 249.706 283.816C249.559 283.969 249.369 284.045 249.135 284.045ZM267.037 291.784C266.787 291.784 266.566 291.713 266.376 291.571C266.158 291.408 266.049 291.207 266.049 290.967C265.799 290.309 265.641 289.773 265.576 289.359C265.511 288.946 265.296 287.773 264.931 285.841C264.653 284.377 264.468 283.201 264.376 282.314C263.892 284.11 263.372 285.631 262.817 286.877C262.174 288.32 261.758 289.449 261.568 290.265C261.633 290.39 261.666 290.513 261.666 290.633C261.666 290.878 261.557 291.079 261.339 291.237C261.143 291.384 260.92 291.457 260.67 291.457C259.935 291.457 259.568 291.128 259.568 290.469L259.315 289.433L258.425 285.433C258.071 284.083 257.467 282.148 256.612 279.628C256.574 279.509 256.555 279.4 256.555 279.302C256.555 278.796 256.841 278.543 257.412 278.543C257.766 278.543 258.038 278.736 258.229 279.122C258.327 279.318 258.525 279.881 258.825 280.812C259.146 281.797 259.467 282.983 259.788 284.371L260.58 287.98C261.162 286.63 261.742 284.986 262.319 283.049C262.672 281.868 262.942 281.049 263.127 280.592C263.617 279.389 264.093 278.787 264.555 278.787C264.936 278.787 265.206 278.981 265.364 279.367C265.56 279.835 265.758 280.951 265.96 282.714C266.068 283.607 266.253 284.679 266.515 285.93L267.217 289.139C267.946 287.386 268.858 285.016 269.952 282.028C270.011 281.865 270.147 281.351 270.36 280.485C270.518 279.849 270.711 279.353 270.939 279C271.135 278.7 271.391 278.551 271.707 278.551C272.256 278.551 272.531 278.823 272.531 279.367C272.531 279.46 272.444 279.732 272.27 280.183L271.943 281.065L271.494 282.518L269.07 288.412C268.847 289.06 268.463 290.001 267.919 291.237C267.723 291.601 267.429 291.784 267.037 291.784ZM280.319 291.539C280.216 291.539 280.028 291.419 279.756 291.18C279.511 290.956 279.329 290.758 279.209 290.584C278.686 290.867 278.227 291.079 277.829 291.22C277.432 291.367 277.1 291.441 276.833 291.441C275.56 291.441 274.632 291.082 274.05 290.363C273.5 289.688 273.225 288.654 273.225 287.261C273.225 285.944 273.677 284.818 274.58 283.881C275.489 282.945 276.572 282.477 277.829 282.477C278.303 282.477 278.833 282.6 279.421 282.845C280.161 283.149 280.531 283.517 280.531 283.947C280.531 284.094 280.477 284.224 280.368 284.339C280.314 284.545 280.27 284.886 280.237 285.359C280.21 285.833 280.194 286.439 280.188 287.18C280.183 287.854 280.229 288.388 280.327 288.78C280.382 289.019 280.553 289.498 280.842 290.216C280.88 290.314 280.942 290.458 281.029 290.649L281.078 290.788C281.078 291.005 281.002 291.185 280.85 291.327C280.697 291.468 280.52 291.539 280.319 291.539ZM278.621 285.865C278.621 285.631 278.635 285.378 278.662 285.106C278.695 284.828 278.741 284.535 278.801 284.224C278.599 284.121 278.425 284.045 278.278 283.996C278.137 283.947 278.022 283.922 277.935 283.922C277.092 283.922 276.363 284.268 275.748 284.959C275.138 285.645 274.833 286.437 274.833 287.335C274.833 288.227 274.991 288.897 275.307 289.343C275.622 289.789 276.096 290.012 276.727 290.012C277.25 290.012 277.693 289.917 278.058 289.727C278.254 289.623 278.529 289.416 278.882 289.106C278.708 287.664 278.621 286.584 278.621 285.865ZM284.572 284.584L284.45 288.641C284.45 289.071 284.428 289.702 284.385 290.535C284.33 291.079 284.063 291.351 283.584 291.351C283.051 291.351 282.784 291.073 282.784 290.518C282.784 289.86 282.814 288.872 282.874 287.555C282.934 286.233 282.964 285.242 282.964 284.584C282.964 283.724 282.978 282.741 283.005 281.637C283.032 280.526 283.046 279.541 283.046 278.681C283.046 278.137 283.312 277.865 283.846 277.865C284.385 277.865 284.654 278.137 284.654 278.681C284.654 279.541 284.64 280.526 284.613 281.637C284.586 282.741 284.572 283.724 284.572 284.584ZM289.16 284.584L289.038 288.641C289.038 289.071 289.016 289.702 288.972 290.535C288.918 291.079 288.651 291.351 288.172 291.351C287.639 291.351 287.372 291.073 287.372 290.518C287.372 289.86 287.402 288.872 287.462 287.555C287.522 286.233 287.552 285.242 287.552 284.584C287.552 283.724 287.566 282.741 287.593 281.637C287.62 280.526 287.634 279.541 287.634 278.681C287.634 278.137 287.9 277.865 288.434 277.865C288.972 277.865 289.242 278.137 289.242 278.681C289.242 279.541 289.228 280.526 289.201 281.637C289.174 282.741 289.16 283.724 289.16 284.584ZM295.487 291.376C294.257 291.376 293.261 291.068 292.499 290.453C291.666 289.773 291.25 288.82 291.25 287.596C291.25 286.181 291.593 284.994 292.279 284.037C293.024 282.992 294.02 282.469 295.266 282.469C296.17 282.469 296.907 282.622 297.479 282.926C298.181 283.302 298.532 283.879 298.532 284.657C298.532 285.201 298.224 285.696 297.609 286.143C297.337 286.339 296.76 286.643 295.879 287.057L292.76 288.535C293.065 288.986 293.443 289.326 293.895 289.555C294.352 289.784 294.883 289.898 295.487 289.898C295.862 289.898 296.303 289.827 296.809 289.686C297.451 289.506 297.865 289.272 298.05 288.984C298.235 288.69 298.434 288.543 298.646 288.543C298.837 288.543 299.005 288.616 299.152 288.763C299.305 288.905 299.381 289.071 299.381 289.261C299.381 289.865 298.894 290.385 297.92 290.82C297.087 291.19 296.276 291.376 295.487 291.376ZM295.266 283.939C294.602 283.939 294.05 284.197 293.609 284.714C293.168 285.226 292.839 285.999 292.621 287.033L295.128 285.841C296.113 285.362 296.815 284.945 297.234 284.592C296.766 284.156 296.11 283.939 295.266 283.939ZM306.295 284.045C306.181 284.045 306.045 284.039 305.887 284.028C305.735 284.018 305.601 284.012 305.487 284.012C305.362 284.012 304.992 284.053 304.377 284.135L304.532 288.959L304.54 289.318L304.548 289.735C304.57 290.927 304.284 291.522 303.691 291.522C303.473 291.522 303.283 291.452 303.12 291.31C302.962 291.169 302.883 290.992 302.883 290.78C302.883 290.573 302.891 290.263 302.907 289.849C302.924 289.435 302.932 289.125 302.932 288.918L302.769 284.151C302.371 284.135 301.767 284.088 300.956 284.012C300.472 283.947 300.23 283.677 300.23 283.204C300.23 282.964 300.303 282.766 300.45 282.608C300.597 282.45 300.785 282.371 301.013 282.371L302.728 282.51C302.728 282.232 302.714 281.862 302.687 281.4C302.665 280.932 302.654 280.594 302.654 280.388C302.654 280.159 302.733 279.971 302.891 279.824C303.049 279.672 303.242 279.596 303.471 279.596C303.96 279.596 304.246 279.996 304.328 280.796C304.344 280.997 304.352 281.239 304.352 281.522L304.336 281.996L304.328 282.502C305.003 282.415 305.389 282.371 305.487 282.371C306.053 282.371 306.423 282.398 306.597 282.453C306.929 282.562 307.095 282.817 307.095 283.22C307.095 283.46 307.019 283.658 306.867 283.816C306.72 283.969 306.529 284.045 306.295 284.045Z" fill="white"/>
</g>
</g>
<defs>
<filter id="filter0_d_1_9" x="0" y="0" width="496" height="178" filterUnits="userSpaceOnUse" color-interpolation-filters="sRGB">
<feFlood flood-opacity="0" result="BackgroundImageFix"/>
<feColorMatrix in="SourceAlpha" type="matrix" values="0 0 0 0 0 0 0 0 0 0 0 0 0 0 0 0 0 0 127 0" result="hardAlpha"/>
<feMorphology radius="12" operator="erode" in="SourceAlpha" result="effect1_dropShadow_1_9"/>
<feOffset dy="25"/>
<feGaussianBlur stdDeviation="25"/>
<feComposite in2="hardAlpha" operator="out"/>
<feColorMatrix type="matrix" values="0 0 0 0 0 0 0 0 0 0 0 0 0 0 0 0 0 0 0.25 0"/>
<feBlend mode="normal" in2="BackgroundImageFix" result="effect1_dropShadow_1_9"/>
<feBlend mode="normal" in="SourceGraphic" in2="effect1_dropShadow_1_9" result="shape"/>
</filter>
<filter id="filter1_d_1_9" x="0" y="78" width="496" height="343" filterUnits="userSpaceOnUse" color-interpolation-filters="sRGB">
<feFlood flood-opacity="0" result="BackgroundImageFix"/>
<feColorMatrix in="SourceAlpha" type="matrix" values="0 0 0 0 0 0 0 0 0 0 0 0 0 0 0 0 0 0 127 0" result="hardAlpha"/>
<feMorphology radius="12" operator="erode" in="SourceAlpha" result="effect1_dropShadow_1_9"/>
<feOffset dy="25"/>
<feGaussianBlur stdDeviation="25"/>
<feComposite in2="hardAlpha" operator="out"/>
<feColorMatrix type="matrix" values="0 0 0 0 0 0 0 0 0 0 0 0 0 0 0 0 0 0 0.25 0"/>
<feBlend mode="normal" in2="BackgroundImageFix" result="effect1_dropShadow_1_9"/>
<feBlend mode="normal" in="SourceGraphic" in2="effect1_dropShadow_1_9" result="shape"/>
</filter>
<filter id="filter2_d_1_9" x="89" y="261" width="318" height="50" filterUnits="userSpaceOnUse" color-interpolation-filters="sRGB">
<feFlood flood-opacity="0" result="BackgroundImageFix"/>
<feColorMatrix in="SourceAlpha" type="matrix" values="0 0 0 0 0 0 0 0 0 0 0 0 0 0 0 0 0 0 127 0" result="hardAlpha"/>
<feOffset dy="4"/>
<feComposite in2="hardAlpha" operator="out"/>
<feColorMatrix type="matrix" values="0 0 0 0 0 0 0 0 0 0 0 0 0 0 0 0 0 0 0.3 0"/>
<feBlend mode="normal" in2="BackgroundImageFix" result="effect1_dropShadow_1_9"/>
<feBlend mode="normal" in="SourceGraphic" in2="effect1_dropShadow_1_9" result="shape"/>
</filter>
</defs>
</svg>
